/* XPM */
static const char *EGG_NEST[] = {
/* columns rows colors chars-per-pixel */
"64 64 9 1 ",
"  c #C0D470",
". c #A4C263",
"X c #E8EEAA",
"o c #90625D",
"O c #F3F2C0",
"+ c #E8CFA6",
"@ c #9AB367",
"# c #B3C373",
"$ c #D6DAA6",
/* pixels */
"                                                                ",
"                                                   . .          ",
"                  . .                    . .        .           ",
"         X X       .                      .                     ",
"          X                                                     ",
"                                                                ",
"                         oooooooooooooo                         ",
"                         oooooooooooooo                   X X   ",
"                         oooooooooooooo                    X    ",
"                         oooooooooooooo                         ",
"   . .                   oooooooooooooo                         ",
"    .                    oooooooooooooo                         ",
"                         oooooooooooooo              . .        ",
"                  oooooooOOOOOOOOOOOOOOooooooo        .         ",
"                  oooooooOOOOOOOOOOOOOOooooooo                  ",
"                  oooooooOOOOOOOOOOOOOOooooooo                  ",
"                  oooooooOOOOOOOOOOOOOOooooooo                  ",
"                  oooooooOOOOOOOOOOOOOOooooooo                  ",
"                  oooooooOOOOOOOOOOOOOOooooooo                  ",
"           X X    oooooooOOOOOOOOOOOOOOooooooo                  ",
"            X     oooooooOOOOOOOOOOOOOOooooooo                  ",
"          ooooooooOOOOOOOOOOOOOOOOOOOOO+++++++oooooooo X X      ",
"          ooooooooOOOOOOOOOOOOOOOOOOOOO+++++++oooooooo  X       ",
"          ooooooooOOOOOOOOOOOOOOOOOOOOO+++++++oooooooo          ",
"          ooooooooOOOOOOOOOOOOOOOOOOOOO+++++++oooooooo          ",
"          ooooooooOOOOOOOOOOOOOOOOOOOOO+++++++oooooooo          ",
"    X X   ooooooooOOOOOOOOOOOOOOOOOOOOO+++++++oooooooo          ",
"     X    ooooooooOOOOOOOOOOOOOOOOOOOOO+++++++oooooooo          ",
"          ooooooooOOOOOOOOOOOOOOOOOOOOO+++++++oooooooo          ",
"          ooooooooOOOOOOOOOOOOOOOOOOOOO+++++++oooooooo          ",
"          ooooooooOOOOOOOOOOOOOOOOOOOOO+++++++oooooooo          ",
"          ooooooooOOOOOOOOOOOOOOOOOOOOO+++++++oooooooo          ",
"          ooooooooOOOOOOOOOOOOOOOOOOOOO+++++++oooooooo          ",
"          ooooooooOOOOOOOOOOOOOOOOOOOOO+++++++oooooooo          ",
"          ooooooooOOOOOOOOOOOOOOOOOOOOO+++++++oooooooo          ",
"         .ooooooooOOOOOOOOOOOOOOOOOOOOO+++++++oooooooo          ",
"          ooooooooOOOOOOOOOOOOOOOOOOOOO+++++++oooooooo          ",
"          ooooooooOOOOOOOOOOOOOOOOOOOOO+++++++oooooooo          ",
"          ooooooooOOOOOOOOOOOOOOOOOOOOO+++++++oooooooo          ",
"          ooooooooOOOOOOOOOOOOOOOOOOOOO+++++++oooooooo          ",
"          ooooooooOOOOOOOOOOOOOOOOOOOOO+++++++oooooooo          ",
"          ooooooooOOOOOOOOOOOOOOOOOOOOO+++++++oooooooo     . .  ",
"   @#@####ooooooooOOOOOOOOOOOOO+++++++++++++++oooooooo######@   ",
"   #@#####ooooooooOOOOOOOOOOOOO+++++++++++++++oooooooo#######   ",
"   #######ooooooooOOOOOOOOOOOOO+++++++++++++++oooooooo$######   ",
"   #######ooooooooOOOOOOOOOOOOO+++++++++++++++oooooooo#######   ",
"   #######ooooooooOOOOOOOOOOOOO+++++++++++++++oooooooo#######   ",
"   #######ooooooooOOOOOOOOOOOOO+++++++++++++++oooooooo#######   ",
"   #######ooooooooOOOOOOOOOOOOO+++++++++++++++oooooooo#######   ",
"   ###############oooooooooooooooooooooooooooo###############   ",
"   ###############oooooooooooooooooooooooooooo###############   ",
"   ########$#$####oooooooooooooooooooooooooooo###############   ",
"   #########$#####oooooooooooooooooooooooooooo###############   ",
"   ###############oooooooooooooooooooooooooooo###############   ",
"   ###############oooooooooooooooooooooooooooo#########$#$###   ",
"   ###############oooooooooooooooooooooooooooo##########$####   ",
"   ###############oooooooooooooooooooooooooooo###############   ",
"          ############################################          ",
"     . .  ##########################@#@###############          ",
"      .   ###########################@################          ",
"          ############################################          ",
"          ############################################          ",
"          ############################################          ",
"          ############################################          "
};
