/* XPM */
static const char *GRASS_BORDER_LEFT[] = {
/* columns rows colors chars-per-pixel */
"64 64 5 1 ",
"  c #9BD4C3",
". c #B1E0BE",
"X c #78A158",
"o c #A4C263",
"O c #C0D470",
/* pixels */
"             ....             ..XXXooooooOOOOOOOOOOOOOOOOOOOOOOO",
"                                XXXooooooOOOOOOOOOOOOOOOOOOOOOOO",
"       ...             ...      XXXooooooOOOOOOOOOOOOOOOOOOOOOOO",
"                                XXXoooooooooOOOOOoooOOOOOOOOOOOO",
"                                XXXoooooooooOOOOOoooOOOOOOOOOOOO",
"...            .....            XXXoooooooooOOOOOoooOOOOOOOOOOOO",
"                                XXXooooooooooooOOOOOOOOOOOOOOOOO",
"                                XXXooooooooooooOOOOOOOOOOOOOOOOO",
"         ....             ....  XXXooooooooooooOOOOOOOOOOOOOOOOO",
"                                XXXXXXooooooOOOOOOOOOOOOOOOOOOOO",
"    ..              ..          XXXXXXooooooOOOOOOOOOOOOOOOOOOOO",
"                                XXXXXXooooooOOOOOOOOOOOOOOOOOOOO",
"             ...             ...XXXXXXooooooOOOOOOOOOOOOOOOOOOOO",
"       ...              ...     XXXXXXooooooOOOOOOOOOOOOOOOOOOOO",
"                                XXXXXXooooooOOOOOOOOOOOOOOOOOOOO",
"                                XXXoooooooooOOOooOOOOOOOOOOOOOOO",
"             ....             ..XXXoooooooooOOOooOOOOOOOOOOOOOOO",
"                                XXXooooooOOOOOOOOOOOOOOOOOOOOOOO",
"       ...             ...      XXXooooooOOOOOOOOOOOOOOOOOOOOOOO",
"                                XXXooooooOOOOOOOOOOOOOOOOOOOOOOO",
"                                XXXooooooOOOOOOOOOOOOOOOOOOOOOOO",
"...            .....            XXXooooooOOOOOOOOOOOOOOOOOOOOOOO",
"                                XXXooooooOOOOOOOOOOOOOOOOOOOOOOO",
"                                XXXooooooOOOOOOOOOOOOOOOOOOOOOOO",
"         ....             ....  XXXooooooOOOOOOOOOOOOOOOOOOOOOOO",
"                                XXXooooooOOOOOOOOOOOOOOOOOOOOOOO",
"    ..              ..          XXXooooooOOOOOOOOOOOOOOOOOOOOOOO",
"                                XXXooooooOOOOOOOOOOOOOOOOOOOOOOO",
"             ...             ...XXXooooooOOOOOOOOOOOOOOOOOOOOOOO",
"       ...              ...     XXXooooooooooooOOOOOOOOoooOOOOOO",
"                                XXXooooooooooooOOOOOOOOoooOOOOOO",
"                                XXXooooooooooooOOOOOOOOoooOOOOOO",
"             ....             ..XXXooooooOOOOOOOOOOOOOOOOOOOOOOO",
"                                XXXooooooOOOOOOOOOOOOOOOOOOOOOOO",
"       ...             ...      XXXooooooOOOOOOOOOOOOOOOOOOOOOOO",
"                                XXXoooooooooOOOOOoooOOOOOOOOOOOO",
"                                XXXoooooooooOOOOOoooOOOOOOOOOOOO",
"...            .....            XXXoooooooooOOOOOoooOOOOOOOOOOOO",
"                                XXXooooooooooooOOOOOOOOOOOOOOOOO",
"                                XXXooooooooooooOOOOOOOOOOOOOOOOO",
"         ....             ....  XXXooooooooooooOOOOOOOOOOOOOOOOO",
"                                XXXXXXooooooOOOOOOOOOOOOOOOOOOOO",
"    ..              ..          XXXXXXooooooOOOOOOOOOOOOOOOOOOOO",
"                                XXXXXXooooooOOOOOOOOOOOOOOOOOOOO",
"             ...             ...XXXXXXooooooOOOOOOOOOOOOOOOOOOOO",
"       ...              ...     XXXXXXooooooOOOOOOOOOOOOOOOOOOOO",
"                                XXXXXXooooooOOOOOOOOOOOOOOOOOOOO",
"                                XXXoooooooooOOOooOOOOOOOOOOOOOOO",
"             ....             ..XXXoooooooooOOOooOOOOOOOOOOOOOOO",
"                                XXXooooooOOOOOOOOOOOOOOOOOOOOOOO",
"       ...             ...      XXXooooooOOOOOOOOOOOOOOOOOOOOOOO",
"                                XXXooooooOOOOOOOOOOOOOOOOOOOOOOO",
"                                XXXooooooOOOOOOOOOOOOOOOOOOOOOOO",
"...            .....            XXXooooooOOOOOOOOOOOOOOOOOOOOOOO",
"                                XXXooooooOOOOOOOOOOOOOOOOOOOOOOO",
"                                XXXooooooOOOOOOOOOOOOOOOOOOOOOOO",
"         ....             ....  XXXooooooOOOOOOOOOOOOOOOOOOOOOOO",
"                                XXXooooooOOOOOOOOOOOOOOOOOOOOOOO",
"    ..              ..          XXXooooooOOOOOOOOOOOOOOOOOOOOOOO",
"                                XXXooooooOOOOOOOOOOOOOOOOOOOOOOO",
"             ...             ...XXXooooooOOOOOOOOOOOOOOOOOOOOOOO",
"       ...              ...     XXXooooooooooooOOOOOOOOoooOOOOOO",
"                                XXXooooooooooooOOOOOOOOoooOOOOOO",
"                                XXXooooooooooooOOOOOOOOoooOOOOOO"
};
