/* XPM */
static const char *GRASS_CORNER_RIGHT_DOWN[] = {
/* columns rows colors chars-per-pixel */
"64 64 5 1 ",
"  c #C0D470",
". c #A4C263",
"X c #78A158",
"o c #B1E0BE",
"O c #9BD4C3",
/* pixels */
"                    .........XXXoOOOOOOOOOOOOOooOOOOOOOOOOOOOooo",
"                    .........XXXOOOOOOOOOOOOOOOOOOOOOOOOOOOOOOOO",
"                    .........XXXOOOOOOOOoooOOOOOOOOOOOOOoooOOOOO",
"                 ............XXXOOOOOOOOOOOOOOOOOOOOOOOOOOOOOOOO",
"                 ............XXXOOOOOOOOOOOOOOOOOOOOOOOOOOOOOOOO",
"                 ............XXXooooOOOOOOOOOOOOoooOOOOOOOOOOOOo",
"                    ......XXXXXXOOOOOOOOOOOOOOOOOOOOOOOOOOOOOOOO",
"                    ......XXXXXXOOOOOOOOOOOOOOOOOOOOOOOOOOOOOOOO",
"                    ......XXXXXXOOOOOOOOOOooooOOOOOOOOOOOooooOOO",
"                    ......XXXXXXOOOOOOOOOOOOOOOOOOOOOOOOOOOOOOOO",
"                    ......XXXXXXOOOOOooOOOOOOOOOOOOOOooOOOOOOOOO",
"                    ......XXXXXXOOOOOOOOOOOOOOOOOOOOOOOOOOOOOOOO",
"...      ...     .........XXXXXXoOOOOOOOOOOOOOoooOOOOOOOOOOOOOoo",
"...      ...     .........XXXXXXOOOOOOOOoooOOOOOOOOOOOOoooOOOOOO",
"...      ...     .........XXXXXXOOOOOOOOOOOOOOOOOOOOOOOOOOOOOOOO",
"                 ......XXXXXXOOOOOOOOOOOOOOOOOOOOOOOOOOOOOOOOOOO",
"                 ......XXXXXXOoooOOOOOOOOOOOOOooOOOOOOOOOOOOOooo",
"               ........XXXXXXOOOOOOOOOOOOOOOOOOOOOOOOOOOOOOOOOOO",
"               ........XXXXXXOOOOOOOOOOOoooOOOOOOOOOOOOOoooOOOOO",
"               ........XXXXXXOOOOOOOOOOOOOOOOOOOOOOOOOOOOOOOOOOO",
"      .................XXXXXXOOOOOOOOOOOOOOOOOOOOOOOOOOOOOOOOOOO",
"      .................XXXXXXOOOooooOOOOOOOOOOOOoooOOOOOOOOOOOOo",
"      .................XXXXXXOOOOOOOOOOOOOOOOOOOOOOOOOOOOOOOOOOO",
"....................XXXXXXOOOOOOOOOOOOOOOOOOOOOOOOOOOOOOOOOOOOOO",
"....................XXXXXXooooOOOOOOOOOOOOooooOOOOOOOOOOOooooOOO",
"....................XXXXXXOOOOOOOOOOOOOOOOOOOOOOOOOOOOOOOOOOOOOO",
"XXX......XXXXXXXXXXXXXXOOOOOOOOOOOOOOooOOOOOOOOOOOOOOooOOOOOOOOO",
"XXX......XXXXXXXXXXXXXXOOOOOOOOOOOOOOOOOOOOOOOOOOOOOOOOOOOOOOOOO",
"XXX......XXXXXXXXXXXXXXOOOOOOooooOOOOOOOOOOOOOoooOOOOOOOOOOOOOoo",
"XXXXXXXXXXXXXXXOOOOOOOOOoooOOOOOOOOOOOOOoooOOOOOOOOOOOOoooOOOOOO",
"XXXXXXXXXXXXXXXOOOOOOOOOOOOOOOOOOOOOOOOOOOOOOOOOOOOOOOOOOOOOOOOO",
"XXXXXXXXXXXXXXXOOOOOOOOOOOOOOOOOOOOOOOOOOOOOOOOOOOOOOOOOOOOOOOOO",
"OOOOOOOOOOOOOooooOOOOOOOOOOOOOoooOOOOOOOOOOOOOooOOOOOOOOOOOOOooo",
"OOOOOOOOOOOOOOOOOOOOOOOOOOOOOOOOOOOOOOOOOOOOOOOOOOOOOOOOOOOOOOOO",
"OOOOOOOoooOOOOOOOOOOOOOoooOOOOOOOOOOOOOOoooOOOOOOOOOOOOOoooOOOOO",
"OOOOOOOOOOOOOOOOOOOOOOOOOOOOOOOOOOOOOOOOOOOOOOOOOOOOOOOOOOOOOOOO",
"OOOOOOOOOOOOOOOOOOOOOOOOOOOOOOOOOOOOOOOOOOOOOOOOOOOOOOOOOOOOOOOO",
"oooOOOOOOOOOOOOoooooOOOOOOOOOOOOooooOOOOOOOOOOOOoooOOOOOOOOOOOOo",
"OOOOOOOOOOOOOOOOOOOOOOOOOOOOOOOOOOOOOOOOOOOOOOOOOOOOOOOOOOOOOOOO",
"OOOOOOOOOOOOOOOOOOOOOOOOOOOOOOOOOOOOOOOOOOOOOOOOOOOOOOOOOOOOOOOO",
"OOOOOOOOOooooOOOOOOOOOOOOOooooOOOOOOOOOOOOooooOOOOOOOOOOOooooOOO",
"OOOOOOOOOOOOOOOOOOOOOOOOOOOOOOOOOOOOOOOOOOOOOOOOOOOOOOOOOOOOOOOO",
"OOOOooOOOOOOOOOOOOOOooOOOOOOOOOOOOOOOooOOOOOOOOOOOOOOooOOOOOOOOO",
"OOOOOOOOOOOOOOOOOOOOOOOOOOOOOOOOOOOOOOOOOOOOOOOOOOOOOOOOOOOOOOOO",
"OOOOOOOOOOOOOoooOOOOOOOOOOOOOooooOOOOOOOOOOOOOoooOOOOOOOOOOOOOoo",
"OOOOOOOoooOOOOOOOOOOOOOOoooOOOOOOOOOOOOOoooOOOOOOOOOOOOoooOOOOOO",
"OOOOOOOOOOOOOOOOOOOOOOOOOOOOOOOOOOOOOOOOOOOOOOOOOOOOOOOOOOOOOOOO",
"OOOOOOOOOOOOOOOOOOOOOOOOOOOOOOOOOOOOOOOOOOOOOOOOOOOOOOOOOOOOOOOO",
"OOOOOOOOOOOOOooooOOOOOOOOOOOOOoooOOOOOOOOOOOOOooOOOOOOOOOOOOOooo",
"OOOOOOOOOOOOOOOOOOOOOOOOOOOOOOOOOOOOOOOOOOOOOOOOOOOOOOOOOOOOOOOO",
"OOOOOOOoooOOOOOOOOOOOOOoooOOOOOOOOOOOOOOoooOOOOOOOOOOOOOoooOOOOO",
"OOOOOOOOOOOOOOOOOOOOOOOOOOOOOOOOOOOOOOOOOOOOOOOOOOOOOOOOOOOOOOOO",
"OOOOOOOOOOOOOOOOOOOOOOOOOOOOOOOOOOOOOOOOOOOOOOOOOOOOOOOOOOOOOOOO",
"oooOOOOOOOOOOOOoooooOOOOOOOOOOOOooooOOOOOOOOOOOOoooOOOOOOOOOOOOo",
"OOOOOOOOOOOOOOOOOOOOOOOOOOOOOOOOOOOOOOOOOOOOOOOOOOOOOOOOOOOOOOOO",
"OOOOOOOOOOOOOOOOOOOOOOOOOOOOOOOOOOOOOOOOOOOOOOOOOOOOOOOOOOOOOOOO",
"OOOOOOOOOooooOOOOOOOOOOOOOooooOOOOOOOOOOOOooooOOOOOOOOOOOooooOOO",
"OOOOOOOOOOOOOOOOOOOOOOOOOOOOOOOOOOOOOOOOOOOOOOOOOOOOOOOOOOOOOOOO",
"OOOOooOOOOOOOOOOOOOOooOOOOOOOOOOOOOOOooOOOOOOOOOOOOOOooOOOOOOOOO",
"OOOOOOOOOOOOOOOOOOOOOOOOOOOOOOOOOOOOOOOOOOOOOOOOOOOOOOOOOOOOOOOO",
"OOOOOOOOOOOOOoooOOOOOOOOOOOOOooooOOOOOOOOOOOOOoooOOOOOOOOOOOOOoo",
"OOOOOOOoooOOOOOOOOOOOOOOoooOOOOOOOOOOOOOoooOOOOOOOOOOOOoooOOOOOO",
"OOOOOOOOOOOOOOOOOOOOOOOOOOOOOOOOOOOOOOOOOOOOOOOOOOOOOOOOOOOOOOOO",
"OOOOOOOOOOOOOOOOOOOOOOOOOOOOOOOOOOOOOOOOOOOOOOOOOOOOOOOOOOOOOOOO"
};
