/* XPM */
static const char *GRASS_CORNER_LEFT_UP[] = {
/* columns rows colors chars-per-pixel */
"64 64 5 1 ",
"  c #9BD4C3",
". c #B1E0BE",
"X c #78A158",
"o c #A4C263",
"O c #C0D470",
/* pixels */
"             ....             ...             ..             ...",
"                                                                ",
"       ...             ...              ...             ...     ",
"                                                                ",
"                                                                ",
"...            .....            ....            ...            .",
"                                                                ",
"                                                                ",
"         ....             ....            ....           ....   ",
"                                                                ",
"    ..              ..               ..              ..         ",
"                                                                ",
"             ...             ....             ...             ..",
"       ...              ...             ...            ...      ",
"                                                                ",
"                                                                ",
"             ....             ...             ..             ...",
"                                                                ",
"       ...             ...              ...             ...     ",
"                                                                ",
"                                                                ",
"...            .....            ....            ...            .",
"                                                                ",
"                                                                ",
"         ....             ....            ....           ....   ",
"                                                                ",
"    ..              ..               ..              ..         ",
"                                                                ",
"             ...             ....             ...             ..",
"       ...              ...             ...            ...      ",
"                                                                ",
"                                                                ",
"             ....             ...             .. XXXXXXXXXXXXXXX",
"                                                 XXXXXXXXXXXXXXX",
"       ...             ...              ...      XXXXXXXXXXXXXXX",
"                                         XXXXXXXXXXXXXXXXXoooooo",
"                                         XXXXXXXXXXXXXXXXXoooooo",
"...            .....            ....     XXXXXXXXXXXXXXXXXoooooo",
"                                      XXXXXXoooooooooooooooooooo",
"                                      XXXXXXoooooooooooooooooooo",
"         ....             ....        XXXXXXoooooooooooooooooooo",
"                                   XXXXXXooooooooooooooooooooooo",
"    ..              ..             XXXXXXooooooooooooooooooooooo",
"                                   XXXXXXooooooooooooooooooooooo",
"             ...             ....  XXXoooooooooooooooooOOOoooOOO",
"       ...              ...        XXXoooooooooooooooooOOOoooOOO",
"                                   XXXoooooooooooooooooOOOoooOOO",
"                                   XXXXXXoooooooooooOOOOOOOOOOOO",
"             ....             ...  XXXXXXoooooooooooOOOOOOOOOOOO",
"                                XXXXXXXXXooooooooOOOOOOOOOOOOOOO",
"       ...             ...      XXXXXXXXXooooooooOOOOOOOOOOOOOOO",
"                                XXXXXXXXXooooooooOOOOOOOOOOOOOOO",
"                                XXXXXXoooooooooOOOOOOOOOOOOOOOOO",
"...            .....            XXXXXXoooooooooOOOOOOOOOOOOOOOOO",
"                                XXXXXXoooooooooOOOOOOOOOOOOOOOOO",
"                                XXXXXXoooooooooooOOOOOOOOOOOOOOO",
"         ....             ....  XXXXXXoooooooooooOOOOOOOOOOOOOOO",
"                                XXXXXXoooooooooooOOOOOOOOOOOOOOO",
"    ..              ..          XXXoooooooooOOOOOOOOOOOOOOOOOOOO",
"                                XXXoooooooooOOOOOOOOOOOOOOOOOOOO",
"             ...             ...XXXoooooooooOOOOOOOOOOOOOOOOOOOO",
"       ...              ...     XXXoooooooooOOOOOOOOOOOOOOOOOOOO",
"                                XXXoooooooooOOOOOOOOOOOOOOOOOOOO",
"                                XXXoooooooooOOOOOOOOOOOOOOOOOOOO"
};
