/* XPM */
static const char *GRASS_BORDER_BOTTOM[] = {
/* columns rows colors chars-per-pixel */
"64 64 5 1 ",
"  c #C0D470",
". c #A4C263",
"X c #78A158",
"o c #9BD4C3",
"O c #B1E0BE",
/* pixels */
"                                                                ",
"                                                                ",
"                                                                ",
"                                                                ",
"                                                                ",
"                                                                ",
"                             ...                             ...",
"                             ...                             ...",
"                             ...                             ...",
"                                                                ",
"                                                                ",
"                                                                ",
"   ...                             ...                          ",
"   ...                             ...                          ",
"   ...                             ...                          ",
"               ..                              ..               ",
"               ..                              ..               ",
"      ...                    ...      ...                    ...",
"      ...                    ...      ...                    ...",
"      ...                    ...      ...                    ...",
"   ..............            ...   ..............            ...",
"   ..............            ...   ..............            ...",
"   ..............            ...   ..............            ...",
"................................................................",
"................................................................",
"................................................................",
".........XXXXXX..........................XXXXXX.................",
".........XXXXXX..........................XXXXXX.................",
".........XXXXXX..........................XXXXXX.................",
"XXXXXXXXXXXXXXXXXXXXXXXXXXXXXXXXXXXXXXXXXXXXXXXXXXXXXXXXXXXXXXXX",
"XXXXXXXXXXXXXXXXXXXXXXXXXXXXXXXXXXXXXXXXXXXXXXXXXXXXXXXXXXXXXXXX",
"XXXXXXXXXXXXXXXXXXXXXXXXXXXXXXXXXXXXXXXXXXXXXXXXXXXXXXXXXXXXXXXX",
"oooooooooooooOOOOoooooooooooooOOOoooooooooooooOOoooooooooooooOOO",
"oooooooooooooooooooooooooooooooooooooooooooooooooooooooooooooooo",
"oooooooOOOoooooooooooooOOOooooooooooooooOOOoooooooooooooOOOooooo",
"oooooooooooooooooooooooooooooooooooooooooooooooooooooooooooooooo",
"oooooooooooooooooooooooooooooooooooooooooooooooooooooooooooooooo",
"OOOooooooooooooOOOOOooooooooooooOOOOooooooooooooOOOooooooooooooO",
"oooooooooooooooooooooooooooooooooooooooooooooooooooooooooooooooo",
"oooooooooooooooooooooooooooooooooooooooooooooooooooooooooooooooo",
"oooooooooOOOOoooooooooooooOOOOooooooooooooOOOOoooooooooooOOOOooo",
"oooooooooooooooooooooooooooooooooooooooooooooooooooooooooooooooo",
"ooooOOooooooooooooooOOoooooooooooooooOOooooooooooooooOOooooooooo",
"oooooooooooooooooooooooooooooooooooooooooooooooooooooooooooooooo",
"oooooooooooooOOOoooooooooooooOOOOoooooooooooooOOOoooooooooooooOO",
"oooooooOOOooooooooooooooOOOoooooooooooooOOOooooooooooooOOOoooooo",
"oooooooooooooooooooooooooooooooooooooooooooooooooooooooooooooooo",
"oooooooooooooooooooooooooooooooooooooooooooooooooooooooooooooooo",
"oooooooooooooOOOOoooooooooooooOOOoooooooooooooOOoooooooooooooOOO",
"oooooooooooooooooooooooooooooooooooooooooooooooooooooooooooooooo",
"oooooooOOOoooooooooooooOOOooooooooooooooOOOoooooooooooooOOOooooo",
"oooooooooooooooooooooooooooooooooooooooooooooooooooooooooooooooo",
"oooooooooooooooooooooooooooooooooooooooooooooooooooooooooooooooo",
"OOOooooooooooooOOOOOooooooooooooOOOOooooooooooooOOOooooooooooooO",
"oooooooooooooooooooooooooooooooooooooooooooooooooooooooooooooooo",
"oooooooooooooooooooooooooooooooooooooooooooooooooooooooooooooooo",
"oooooooooOOOOoooooooooooooOOOOooooooooooooOOOOoooooooooooOOOOooo",
"oooooooooooooooooooooooooooooooooooooooooooooooooooooooooooooooo",
"ooooOOooooooooooooooOOoooooooooooooooOOooooooooooooooOOooooooooo",
"oooooooooooooooooooooooooooooooooooooooooooooooooooooooooooooooo",
"oooooooooooooOOOoooooooooooooOOOOoooooooooooooOOOoooooooooooooOO",
"oooooooOOOooooooooooooooOOOoooooooooooooOOOooooooooooooOOOoooooo",
"oooooooooooooooooooooooooooooooooooooooooooooooooooooooooooooooo",
"oooooooooooooooooooooooooooooooooooooooooooooooooooooooooooooooo"
};
