/* XPM */
static const char *GRASS_CORNER_RIGHT_UP[] = {
/* columns rows colors chars-per-pixel */
"64 64 5 1 ",
"  c #9BD4C3",
". c #B1E0BE",
"X c #78A158",
"o c #A4C263",
"O c #C0D470",
/* pixels */
"             ....             ...             ..             ...",
"                                                                ",
"       ...             ...              ...             ...     ",
"                                                                ",
"                                                                ",
"...            .....            ....            ...            .",
"                                                                ",
"                                                                ",
"         ....             ....            ....           ....   ",
"                                                                ",
"    ..              ..               ..              ..         ",
"                                                                ",
"             ...             ....             ...             ..",
"       ...              ...             ...            ...      ",
"                                                                ",
"                                                                ",
"             ....             ...             ..             ...",
"                                                                ",
"       ...             ...              ...             ...     ",
"                                                                ",
"                                                                ",
"...            .....            ....            ...            .",
"                                                                ",
"                                                                ",
"         ....             ....            ....           ....   ",
"                                                                ",
"    ..              ..               ..              ..         ",
"                                                                ",
"             ...             ....             ...             ..",
"       ...              ...             ...            ...      ",
"                                                                ",
"                                                                ",
"XXXXXXXXXXXXXXX..             ...             ..             ...",
"XXXXXXXXXXXXXXX                                                 ",
"XXXXXXXXXXXXXXX        ...              ...             ...     ",
"ooooooXXXXXXXXXXXXXXXXX                                         ",
"ooooooXXXXXXXXXXXXXXXXX                                         ",
"ooooooXXXXXXXXXXXXXXXXX         ....            ...            .",
"oooooooooooooooooXXXXXXXXX                                      ",
"oooooooooooooooooXXXXXXXXX                                      ",
"oooooooooooooooooXXXXXXXXX....            ....           ....   ",
"oooooooooooooooooooooooXXXXXX                                   ",
"oooooooooooooooooooooooXXXXXX        ..              ..         ",
"oooooooooooooooooooooooXXXXXX                                   ",
"OOOooooooooooooooooooooXXXXXX....             ...             ..",
"OOOooooooooooooooooooooXXXXXX           ...            ...      ",
"OOOooooooooooooooooooooXXXXXX                                   ",
"OOOOOOOOOoooOOOooooooooXXXXXX                                   ",
"OOOOOOOOOoooOOOooooooooXXXXXX ...             ..             ...",
"OOOOOOOOOOOOOOOOOoooooooooXXXXXX                                ",
"OOOOOOOOOOOOOOOOOoooooooooXXXXXX        ...             ...     ",
"OOOOOOOOOOOOOOOOOoooooooooXXXXXX                                ",
"OOOOOOOOOOOOOOOOOOOOooooooXXXXXX                                ",
"OOOOOOOOOOOOOOOOOOOOooooooXXXXXX....            ...            .",
"OOOOOOOOOOOOOOOOOOOOooooooXXXXXX                                ",
"OOOOOOOOOOOOOOOOOOOOoooooooooXXX                                ",
"OOOOOOOOOOOOOOOOOOOOoooooooooXXX          ....           ....   ",
"OOOOOOOOOOOOOOOOOOOOoooooooooXXX                                ",
"OOOOOOOOOOOOoooOOOOOoooooooooXXX     ..              ..         ",
"OOOOOOOOOOOOoooOOOOOoooooooooXXX                                ",
"OOOOOOOOOOOOoooOOOOOoooooooooXXX.             ...             ..",
"OOOOOOOOOOOOOOOOOOOOOOOoooXXXXXX        ...            ...      ",
"OOOOOOOOOOOOOOOOOOOOOOOoooXXXXXX                                ",
"OOOOOOOOOOOOOOOOOOOOOOOoooXXXXXX                                "
};
