/* XPM */
static const char *GRASS_CORNER_LEFT_DOWN[] = {
/* columns rows colors chars-per-pixel */
"64 64 5 1 ",
"  c #9BD4C3",
". c #B1E0BE",
"X c #78A158",
"o c #A4C263",
"O c #C0D470",
/* pixels */
"             ....             ..XXXXXXooooooOOOOOOOOOOOoooOOOOOO",
"                                XXXXXXooooooOOOOOOOOOOOoooOOOOOO",
"       ...             ...      XXXXXXooooooOOOOOOOOOOOoooOOOOOO",
"                                XXXooooooooooooOOOOOOOOOOOOOOOOO",
"                                XXXooooooooooooOOOOOOOOOOOOOOOOO",
"...            .....            XXXooooooooooooOOOOOOOOOOOOOOOOO",
"                                XXXoooooooooOOOOOOOOOOOOOOOOOOOO",
"                                XXXoooooooooOOOOOOOOOOOOOOOOOOOO",
"         ....             ....  XXXoooooooooOOOOOOOOOOOOOOOOOOOO",
"                                XXXXXXooooooOOOOOOOOOOOOOOOOOOOO",
"    ..              ..          XXXXXXooooooOOOOOOOOOOOOOOOOOOOO",
"                                XXXXXXooooooOOOOOOOOOOOOOOOOOOOO",
"             ...             ...XXXXXXoooooooooooOOOOOOOOOOOOOOO",
"       ...              ...     XXXXXXoooooooooooOOOOOOOOOOOOOOO",
"                                XXXXXXoooooooooooOOOOOOOOOOOOOOO",
"                                   XXXoooooooooOOOOOOOOOOOoooOOO",
"             ....             ...  XXXoooooooooOOOOOOOOOOOoooOOO",
"                                   XXXXXXooooooooOOOOOOoooOOOOOO",
"       ...             ...         XXXXXXooooooooOOOOOOoooOOOOOO",
"                                   XXXXXXooooooooOOOOOOoooOOOOOO",
"                                   XXXXXXooooooooooooooooooooooo",
"...            .....            ...XXXXXXooooooooooooooooooooooo",
"                                   XXXXXXooooooooooooooooooooooo",
"                                      XXXXXXoooooooooooooooooooo",
"         ....             ....        XXXXXXoooooooooooooooooooo",
"                                      XXXXXXoooooooooooooooooooo",
"    ..              ..               ..  XXXXXXXXXXXXXXXXXoooXXX",
"                                         XXXXXXXXXXXXXXXXXoooXXX",
"             ...             ....        XXXXXXXXXXXXXXXXXoooXXX",
"       ...              ...             ...      XXXXXXXXXXXXXXX",
"                                                 XXXXXXXXXXXXXXX",
"                                                 XXXXXXXXXXXXXXX",
"             ....             ...             ..             ...",
"                                                                ",
"       ...             ...              ...             ...     ",
"                                                                ",
"                                                                ",
"...            .....            ....            ...            .",
"                                                                ",
"                                                                ",
"         ....             ....            ....           ....   ",
"                                                                ",
"    ..              ..               ..              ..         ",
"                                                                ",
"             ...             ....             ...             ..",
"       ...              ...             ...            ...      ",
"                                                                ",
"                                                                ",
"             ....             ...             ..             ...",
"                                                                ",
"       ...             ...              ...             ...     ",
"                                                                ",
"                                                                ",
"...            .....            ....            ...            .",
"                                                                ",
"                                                                ",
"         ....             ....            ....           ....   ",
"                                                                ",
"    ..              ..               ..              ..         ",
"                                                                ",
"             ...             ....             ...             ..",
"       ...              ...             ...            ...      ",
"                                                                ",
"                                                                "
};
