/* XPM */
static const char *GRASS_BORDER_RIGHT[] = {
/* columns rows colors chars-per-pixel */
"64 64 5 1 ",
"  c #C0D470",
". c #A4C263",
"X c #78A158",
"o c #B1E0BE",
"O c #9BD4C3",
/* pixels */
"      ...        ............XXXoOOOOOOOOOOOOOooOOOOOOOOOOOOOooo",
"      ...        ............XXXOOOOOOOOOOOOOOOOOOOOOOOOOOOOOOOO",
"      ...        ............XXXOOOOOOOOoooOOOOOOOOOOOOOoooOOOOO",
"                       ......XXXOOOOOOOOOOOOOOOOOOOOOOOOOOOOOOOO",
"                       ......XXXOOOOOOOOOOOOOOOOOOOOOOOOOOOOOOOO",
"                       ......XXXooooOOOOOOOOOOOOoooOOOOOOOOOOOOo",
"                       ......XXXOOOOOOOOOOOOOOOOOOOOOOOOOOOOOOOO",
"                       ......XXXOOOOOOOOOOOOOOOOOOOOOOOOOOOOOOOO",
"                       ......XXXOOOOOOOOOOooooOOOOOOOOOOOooooOOO",
"                       ......XXXOOOOOOOOOOOOOOOOOOOOOOOOOOOOOOOO",
"                       ......XXXOOOOOooOOOOOOOOOOOOOOooOOOOOOOOO",
"                       ......XXXOOOOOOOOOOOOOOOOOOOOOOOOOOOOOOOO",
"                       ......XXXoOOOOOOOOOOOOOoooOOOOOOOOOOOOOoo",
"                       ......XXXOOOOOOOOoooOOOOOOOOOOOOoooOOOOOO",
"                       ......XXXOOOOOOOOOOOOOOOOOOOOOOOOOOOOOOOO",
"               ..   .........XXXOOOOOOOOOOOOOOOOOOOOOOOOOOOOOOOO",
"               ..   .........XXXoOOOOOOOOOOOOOooOOOOOOOOOOOOOooo",
"                    ......XXXXXXOOOOOOOOOOOOOOOOOOOOOOOOOOOOOOOO",
"                    ......XXXXXXOOOOOOOOoooOOOOOOOOOOOOOoooOOOOO",
"                    ......XXXXXXOOOOOOOOOOOOOOOOOOOOOOOOOOOOOOOO",
"                    ......XXXXXXOOOOOOOOOOOOOOOOOOOOOOOOOOOOOOOO",
"                    ......XXXXXXooooOOOOOOOOOOOOoooOOOOOOOOOOOOo",
"                    ......XXXXXXOOOOOOOOOOOOOOOOOOOOOOOOOOOOOOOO",
"                 ............XXXOOOOOOOOOOOOOOOOOOOOOOOOOOOOOOOO",
"                 ............XXXOOOOOOOOOOooooOOOOOOOOOOOooooOOO",
"                 ............XXXOOOOOOOOOOOOOOOOOOOOOOOOOOOOOOOO",
"            ...     .........XXXOOOOOooOOOOOOOOOOOOOOooOOOOOOOOO",
"            ...     .........XXXOOOOOOOOOOOOOOOOOOOOOOOOOOOOOOOO",
"            ...     .........XXXoOOOOOOOOOOOOOoooOOOOOOOOOOOOOoo",
"                       ......XXXOOOOOOOOoooOOOOOOOOOOOOoooOOOOOO",
"                       ......XXXOOOOOOOOOOOOOOOOOOOOOOOOOOOOOOOO",
"                       ......XXXOOOOOOOOOOOOOOOOOOOOOOOOOOOOOOOO",
"      ...        ............XXXoOOOOOOOOOOOOOooOOOOOOOOOOOOOooo",
"      ...        ............XXXOOOOOOOOOOOOOOOOOOOOOOOOOOOOOOOO",
"      ...        ............XXXOOOOOOOOoooOOOOOOOOOOOOOoooOOOOO",
"                       ......XXXOOOOOOOOOOOOOOOOOOOOOOOOOOOOOOOO",
"                       ......XXXOOOOOOOOOOOOOOOOOOOOOOOOOOOOOOOO",
"                       ......XXXooooOOOOOOOOOOOOoooOOOOOOOOOOOOo",
"                       ......XXXOOOOOOOOOOOOOOOOOOOOOOOOOOOOOOOO",
"                       ......XXXOOOOOOOOOOOOOOOOOOOOOOOOOOOOOOOO",
"                       ......XXXOOOOOOOOOOooooOOOOOOOOOOOooooOOO",
"                       ......XXXOOOOOOOOOOOOOOOOOOOOOOOOOOOOOOOO",
"                       ......XXXOOOOOooOOOOOOOOOOOOOOooOOOOOOOOO",
"                       ......XXXOOOOOOOOOOOOOOOOOOOOOOOOOOOOOOOO",
"                       ......XXXoOOOOOOOOOOOOOoooOOOOOOOOOOOOOoo",
"                       ......XXXOOOOOOOOoooOOOOOOOOOOOOoooOOOOOO",
"                       ......XXXOOOOOOOOOOOOOOOOOOOOOOOOOOOOOOOO",
"               ..   .........XXXOOOOOOOOOOOOOOOOOOOOOOOOOOOOOOOO",
"               ..   .........XXXoOOOOOOOOOOOOOooOOOOOOOOOOOOOooo",
"                    ......XXXXXXOOOOOOOOOOOOOOOOOOOOOOOOOOOOOOOO",
"                    ......XXXXXXOOOOOOOOoooOOOOOOOOOOOOOoooOOOOO",
"                    ......XXXXXXOOOOOOOOOOOOOOOOOOOOOOOOOOOOOOOO",
"                    ......XXXXXXOOOOOOOOOOOOOOOOOOOOOOOOOOOOOOOO",
"                    ......XXXXXXooooOOOOOOOOOOOOoooOOOOOOOOOOOOo",
"                    ......XXXXXXOOOOOOOOOOOOOOOOOOOOOOOOOOOOOOOO",
"                 ............XXXOOOOOOOOOOOOOOOOOOOOOOOOOOOOOOOO",
"                 ............XXXOOOOOOOOOOooooOOOOOOOOOOOooooOOO",
"                 ............XXXOOOOOOOOOOOOOOOOOOOOOOOOOOOOOOOO",
"            ...     .........XXXOOOOOooOOOOOOOOOOOOOOooOOOOOOOOO",
"            ...     .........XXXOOOOOOOOOOOOOOOOOOOOOOOOOOOOOOOO",
"            ...     .........XXXoOOOOOOOOOOOOOoooOOOOOOOOOOOOOoo",
"                       ......XXXOOOOOOOOoooOOOOOOOOOOOOoooOOOOOO",
"                       ......XXXOOOOOOOOOOOOOOOOOOOOOOOOOOOOOOOO",
"                       ......XXXOOOOOOOOOOOOOOOOOOOOOOOOOOOOOOOO"
};
