/* XPM */
static const char *log[] = {
/* columns rows colors chars-per-pixel */
"64 64 8 1 ",
"  c #C0D470",
". c #A4C263",
"X c #E8EEAA",
"o c #90625D",
"O c #DCB98A",
"+ c #E8CFA6",
"@ c #B68962",
"# c #C49A6C",
/* pixels */
"                                                                ",
"                                                   . .          ",
"                  . .                    . .        .           ",
"         X X      oooooooooooooooooooooooooo                    ",
"          X       oooooooooooooooooooooooooo                    ",
"                  oooooooooooooooooooooooooo                    ",
"                  oooooooooooooooooooooooooo                    ",
"                  oooooooooooooooooooooooooo              X X   ",
"                  oooooooooooooooooooooooooo               X    ",
"            ooooooOOOOOOOOOOOOOOOOOOOOOOOOOOoooooo              ",
"   . .      ooooooOOOOOOOOOOOOOOOOOOOOOOOOOOoooooo              ",
"    .       ooooooOOOOOOOOOOOOOOOOOOOOOOOOOOoooooo              ",
"            ooooooOOOOOOOOOOOOOOOOOOOOOOOOOOoooooo   . .        ",
"            ooooooOOOOOOOOOOOOOOOOOOOOOOOOOOoooooo    .         ",
"            ooooooOOOOOOOOOOOOOOOOOOOOOOOOOOoooooo              ",
"      ooooooOOOOOOOOOOOOOOOOOOOOOOOOOOOOOOOOOOOOOOooooooo       ",
"      ooooooOOOOOOOOOOOOOOOOOOOOOOOOOOOOOOOOOOOOOOooooooo       ",
"      ooooooOOOOOOOOOOOOOOOOOOOOOOOOOOOOOOOOOOOOOOooooooo       ",
"      ooooooOOOOOOOOOOOOOOOOOOOOOOOOOOOOOOOOOOOOOOooooooo       ",
"      ooooooOOOOOOOOOOOOOOOOOOOOOOOOOOOOOOOOOOOOOOooooooo       ",
"      ooooooOOOOOOOOOOOOOOOOOOOOOOOOOOOOOOOOOOOOOOooooooo       ",
"      ooooooOOOOOOOOOOOOOOOOOOOOOOOOOOOOOOOOOOOOOOoooooooX      ",
"      ooooooOOOOOOOOOOOOOOOOOOOOOOOOOOOOOOOOOOOOOOooooooo       ",
"      oooooo++++++OOOOOOOOOOOOOOOOOOOOOOOOOO++++++ooooooo       ",
"      oooooo++++++OOOOOOOOOOOOOOOOOOOOOOOOOO++++++ooooooo       ",
"      oooooo++++++OOOOOOOOOOOOOOOOOOOOOOOOOO++++++ooooooo       ",
"    X oooooo++++++OOOOOOOOOOOOOOOOOOOOOOOOOO++++++ooooooo       ",
"     Xoooooo++++++OOOOOOOOOOOOOOOOOOOOOOOOOO++++++ooooooo       ",
"      oooooo++++++OOOOOOOOOOOOOOOOOOOOOOOOOO++++++ooooooo       ",
"      oooooo@@@@@@++++++++++++++++++++++++++@@@@@@ooooooo       ",
"      oooooo@@@@@@++++++++++++++++++++++++++@@@@@@ooooooo       ",
"      oooooo@@@@@@++++++++++++++++++++++++++@@@@@@ooooooo       ",
"      oooooo@@@@@@++++++++++++++++++++++++++@@@@@@ooooooo       ",
"      oooooo@@@@@@++++++++++++++++++++++++++@@@@@@ooooooo       ",
"      oooooo@@@@@@++++++++++++++++++++++++++@@@@@@ooooooo       ",
"      oooooo@@@@@@@@@@@@@@@@@@@@@@@@@@@@@@@@@@@@@@ooooooo       ",
"      oooooo@@@@@@@@@@@@@@@@@@@@@@@@@@@@@@@@@@@@@@ooooooo       ",
"      oooooo@@@@@@@@@@@@@@@@@@@@@@@@@@@@@@@@@@@@@@ooooooo       ",
"      oooooo@@@@@@@@@@@@@@@@@@@@@@@@@@@@@@@@@@@@@@ooooooo       ",
"      oooooo@@@@@@@@@@@@@@@@@@@@@@@@@@@@@@@@@@@@@@ooooooo       ",
"      oooooo@@@@@@@@@@@@@@@@@@@@@@@@@@@@@@@@@@@@@@ooooooo       ",
"      oooooo@@@@@@########@@@@@@##################ooooooo  . .  ",
"   . .oooooo@@@@@@########@@@@@@##################ooooooo   .   ",
"    . oooooo@@@@@@########@@@@@@##################ooooooo       ",
"      oooooo@@@@@@########@@@@@@##################ooooooo       ",
"      oooooo@@@@@@########@@@@@@##################ooooooo       ",
"      oooooo@@@@@@########@@@@@@##################ooooooo       ",
"oooooo###################################################ooooooo",
"oooooo###################################################ooooooo",
"oooooo###################################################ooooooo",
"oooooo###################################################ooooooo",
"oooooo###################################################ooooooo",
"oooooo###################################################ooooooo",
"oooooo###################################################ooooooo",
"oooooo###################################################ooooooo",
"      ###################################################       ",
"      ###################################################       ",
"      ###################################################       ",
"     .###################################################       ",
"      ###################################################       ",
"                                                                ",
"                                                                ",
"                                                                ",
"                                                                "
};
