/* XPM */
static const char *WATER[] = {
/* columns rows colors chars-per-pixel */
"64 64 2 1 ",
"  c #9BD4C3",
". c #B1E0BE",
/* pixels */
"           ....               ...               ..              ",
"                                                                ",
"    ...               ...                ...               ...  ",
"                                                                ",
"                                                                ",
"                                                                ",
"             .....              ....              ...           ",
"                                                                ",
"                                                                ",
"                                                                ",
"                                                                ",
"         ...                 ....                  ....         ",
"         ...                 ....                  ....         ",
" ...                 .....                 ....                 ",
" ...                 .....                 ....                 ",
" ...                 .....                 ....                 ",
"                                                                ",
"             ...                   ....                 ...     ",
"             ...                   ....                 ...     ",
"                                                                ",
"    ......               ......                .....            ",
"    ......               ......                .....            ",
"                                                                ",
"                                                                ",
"                                                                ",
"..                ....                 .....                 ...",
"..                ....                 .....                 ...",
"                                                                ",
"                                                                ",
"                                                                ",
"                                                                ",
"         ...                   ...                 ....         ",
"         ...                   ...                 ....         ",
"                                                                ",
"  ..                 ....                 .....                 ",
"  ..                 ....                 .....                 ",
"                                                                ",
"                                                                ",
"                                                                ",
"        ....                ...                 ....            ",
"        ....                ...                 ....            ",
"..                  ...                 .....                 ..",
"..                  ...                 .....                 ..",
"..                  ...                 .....                 ..",
"                                                                ",
"            ..                  ...                   ....      ",
"            ..                  ...                   ....      ",
"                                                                ",
"   ......              ......               ......              ",
"   ......              ......               ......              ",
"                                                                ",
"                                                                ",
"                                                                ",
".                ....                ....                 ..... ",
".                ....                ....                 ..... ",
"                                                                ",
"                                                                ",
"                                                                ",
"                                                                ",
"       ...                  ...                   ...           ",
"       ...                  ...                   ...           ",
"                                                                ",
"...                  ..                 ....                 ...",
"...                  ..                 ....                 ..."
};
