/* XPM */
static const char *BLOCKED_EXIT[] = {
/* columns rows colors chars-per-pixel */
"64 64 94 2 ",
"   c #C0D470",
".  c #A4C263",
"X  c #E8EEAA",
"o  c #C49A6C",
"O  c #AAA758",
"+  c #A6A555",
"@  c #7A4B21",
"#  c #774B27",
"$  c #A2A253",
"%  c #A2A255",
"&  c #774921",
"*  c #6C4321",
"=  c #5A3619",
"-  c #5D361C",
";  c #774924",
":  c #5F3617",
">  c #5A361C",
",  c #643E1F",
"<  c #5A391C",
"1  c #5F391C",
"2  c #7A491F",
"3  c #73461F",
"4  c #673C1C",
"5  c #7A4B24",
"6  c #C9B97E",
"7  c #7A491C",
"8  c #673C19",
"9  c #7C4921",
"0  c #866832",
"q  c #774927",
"w  c #927E3E",
"e  c #A5A052",
"r  c #6E431C",
"t  c #673E1F",
"y  c #77491F",
"u  c #7A4621",
"i  c #B6C365",
"p  c #BACA69",
"a  c #5D391C",
"s  c #734624",
"d  c #7A4921",
"f  c #643C1C",
"g  c #86622D",
"h  c #AFB65E",
"j  c #754921",
"k  c #5F3614",
"l  c #492709",
"z  c #774B21",
"x  c #4B2E11",
"c  c #774B1F",
"v  c #553114",
"b  c #9E944B",
"n  c #7A4924",
"m  c #B0B65E",
"M  c #B1BB60",
"N  c #81582A",
"B  c #87642F",
"V  c #B8C667",
"C  c #876732",
"Z  c #4E3111",
"A  c #4B290E",
"S  c #917E3E",
"D  c #7C4924",
"F  c #4E2E11",
"G  c #5D3619",
"H  c #46290E",
"J  c #462911",
"K  c #583419",
"L  c #432C0E",
"P  c #43290E",
"I  c #49290E",
"U  c #432C0C",
"Y  c #462C11",
"T  c #5A3919",
"R  c #4B2E0E",
"E  c #391F09",
"W  c #361C0E",
"Q  c #432C11",
"!  c #432911",
"~  c #341C0E",
"^  c #49290C",
"/  c #3C1F0E",
"(  c #361F0C",
")  c #432909",
"_  c #43290C",
"`  c #391C0E",
"'  c #3E240E",
"]  c #2E1709",
"[  c #AA7959",
"{  c #361C0C",
"}  c #2C1406",
"|  c #341C11",
" . c #34190E",
".. c #341911",
/* pixels */
"                                                                                                                                ",
"                                                                                                      .   .                     ",
"                                    .   .                                         .   .                 .                       ",
"                  X   X               .                                             .                                           ",
"                    X                                                                                                           ",
"                                                                                                                                ",
"      o o o o o o o o     o o o o o o o o     o o o o o o o o     o o o o o o o o     o o o o o o o o     o o o o o o o o       ",
"      o o o o o o o o     o o o o o o o o     o o o o o o o o     o o o o o o o o     o o o o o o o o     o o o o o o o o       ",
"      o o o o o o o o     o o o o o o o o O + o o o o o o o o @ @ o o o o # o o o $ % o o o o o o o o     o o o o o o o o       ",
"      o o o o o o o o     o o o o o o o o & * o o o o o o o o & & o o o o # o o o = - o o o o o o o o     o o o o o o o o       ",
"      o o o o o o o o     o o o o o o o o & * o o o o o o o o & & o o o o # o o o = - o o o o o o o o     o o o o o o o o       ",
"      o o o # o o o o     o o o o o # o o & ; o o o o o o o o & & o o o o # o o o = : o o o o o o o o     o o o o o o o o       ",
"      o o o # o o o o     o o o o o # o o & & o o o o o o o o & & o o o o # o o o > ; o o o o o o o o     o o o o o o o o       ",
"      o o o # o o o o , < o o o o o o o o & & o o o o o o o o & & o o o o o o o o 1 ; o o o o o o o o @ 2 o o o o o o o o       ",
"      o o o # o o o o , < o o o o o o o o & & o o o o o o o o & & o o o o o o o o 1 ; o o o o o o o o @ 2 o o o o o # o o       ",
"      o o o o o o o o & 3 o o o o o o o o & & o o o o o o o o & & o o o o o o o o 4 ; o o o o o o o o 5 6 o o o o o # o o       ",
"      o o o o o o o o & # o o o o o o o o & & o o o o o o o o & & o o o o o o o o 4 ; o o o o o o o o & 7 o o o o o # o o       ",
"      o o o o o o o o & # o o o o o o o o & & o o o o o o o o & & o o o o o o o o 4 ; o o o o o o o o & 7 o o o o o # o o       ",
"      o o o o o o o o & # o o o o o o o o & & o o o o o o # o & & o o o o o o o o 8 ; o o o o o o o o & & o o o o o # o o       ",
"      o o o o o o o o & ; o o o o o o o o & & o o o o o o # o & & o o o o o o o o & & o o o o o o o o & & o o o o o o o o       ",
"      o o o o o o o o & & o o o o o o o o & & o o o o o o # o & & o o o o o o o o & & o o o o # o o o & & o o o o o o o o       ",
"      o o o o o o o o & & o o o o o o o o & & o o o o o o # o & & o o o o o o o o & & o o o o # o o o & & o o o o o o o o       ",
"      o o o o o o o o & & o o o o o o o o & & o o o o o o o o & & o o o o o o o o & & o o o o # o o o & & o o o o o o o o       ",
"    9 o o o o o o o o & & o o o o o o o o & & o o o o o o o o & & o o o o o o o o & & o o o o o o o o & & o o o o o o o o       ",
"  0 & o o o o o o o o & & o o o o o o o o & & o o o o o o o o ; & o o o o o o o o & & o o o o o o o o & & o o o o o o o o q w   ",
"  0 & o o o o o o o o & & o o o o o o # o & & o o o o o o o o ; & o o o o o o o o & & o o o o o o o o & & o o o o o o o o q w   ",
"e & & o o o o o o o o & & o o o o o o # o & r o o o o o o o o t & o o o o o o o o & y o o o o o o o o & & o o o o o o o o u i p ",
"e & & o o o o o o o o 5 8 o o o o o o # o & r o o o o o o o o a s o o o o o o o o d f o o o o o o o o & & o o o o o o o o & g h ",
"e & & o o o o o o o o 5 8 o o o o o o # o & r o o o o o o o o a s o o o o o o o o d f o o o o o o o o & & o o o o o o o o & g h ",
"j & & o o o o o o o o k = o o o o o o # o & < o o o o o o o o = a o o o o o o o o , l o o o o o o o o & & o o o o o o o o & z h ",
"d & & o o o o o o o o a = o o o o o o o o ; > o o o o o o o o = = o o o o o o o o x > o o o o o o o o & & o o o o o o o o & & c ",
"d & & o o o o o o o o = = o o o o o o o o d > o o o o o o o o = = o o o o o o o o v a o o o o o o o o & & o o o o o o o o & & c ",
"d & & o o o o o o o o = = o o o o o o o o d > o o o o o o o o = = o o o o o o o o v a o o o o o o o o & & o o o o o o o o & & c ",
"b & & o o o o o o o o = = o o o o o o o o n > o o o o o o o o = = o o o o o o o o = = o o o o o o o o & & o o o o o o o o & & c ",
"e & & o o o o o o o o = = o o o o o o o o = = o o o o o o o o = = o o o o o o o o = = o o o o o o o o = k o o o o o o o o & & ; ",
"e & ; o o o o o o o o = = o o o o o o o o = = o o o o o o o o = = o o o o o o o o = = o o o o o o o o = = o o o o o o o o & d m ",
"e & ; o o o o o o o o = = o o o o o o o o = = o o o o o o o o = = o o o o o o o o = = o o o o o o o o = = o o o o o o o o & d m ",
"M N ; o o o o o # o o = = o o o o o o o o = = o o o o o o o o = = o o o o o o o o = = o o o o o o o o = = o o o o o o o o & B V ",
"  C ; o o o o o # o o = = o o o o o o o o = = o o o o o o o o Z = o o o o o o o o = A o o o o o o o o = = o o o o o o o o & S   ",
"  C ; o o o o o o o o = = o o o o o o o o = = o o # o o o o o Z = o o o o o o o o = A o o o o o # o o = = o o o o o o o o & S   ",
"    D o o o o o o o o = a o o o o o o o o = = o o # o o o o o F = o o o o o o o o G H o o o o o # o o = = o o o o o o o o u     ",
"      o o o o o o o o = a o o o o o o o o = = o o o o o o o o J K o o o o o o o o x L o o o o o o o o = = o o o o o o o o .     ",
"      o o o o o o o o = a o o o o o o o o = > o o o o o o o o P I o o o o o o o o U J o o o o o o o o = = o o o o o o o o       ",
"      o o o o o o o o = a o o o o o o o o = > o o o o o o o o P I o o o o o o o o U J o o o o o o o o = = o o o o o o o o       ",
"      o o o o o o o o = < o o o o o o o o U L o o o o o o o o P P o o o o # o o o P Y o o o o o o o o T = o o o o o o o o       ",
"      o o o o o o o o = R o o o o o o o o P P o o o o o o o o P P o o o o # o o o P E o o o o o o o o F = o o o o o o o o       ",
"      o o # o o o o o > P o o o o o o o o P P o o o o o o o o P P o o o o # o o o P W o o # o o o o o I T o o o o o o o o       ",
"      o o # o o o o o > P o o # o o o o o P P o o o o o o o o P P o o o o o o o o P W o o # o o o o o I T o # o o o o o o       ",
"      o o # o o o o o Q P o o # o o o o o P P o o o o o o o o P P o o o o o o # o ! ~ o o # o o o o o P ^ o # o o o o o o       ",
"      o o o o o o o o P Y o o o o o o o o P P o o o o o o o o / P o o o o o o # o ( ~ o o o o o o o o P ! o # o o o o o o       ",
"      o o o o o o o o P Y o o o o o o o o P P o o o o o o o o / P o o o o o o o o ( ~ o o o o o o o o P ! o o o o o o o o       ",
"      o o o o o o o o ) _ o o o o o o o o ` ' o o o o o o o o W ` o o o o o o o o W ] o o o o o o o o _ U o o o o o o o o       ",
"      [ [ [ [ [ [ [ [   X [ [ [ [ [ [ [ [ { W [ [ [ [ [ [ [ [ ~ ~ [ [ [ [ [ [ [ [ ~ } [ [ [ [ [ [ [ [     [ [ [ [ [ [ [ [       ",
"      [ [ [ [ [ [ [ [     [ [ [ [ [ [ [ [ | ~ [ [ [ [ [ [ [ [ ~ ~ [ [ [ [ [ [ [ [ ~ ~ [ [ [ [ [ [ [ [     [ [ [ [ [ [ [ [       ",
"      [ [ [ [ [ [ [ [     [ [ [ [ [ [ [ [ | ~ [ [ [ [ [ [ [ [ ~ ~ [ [ [ [ [ [ [ [ ~ ~ [ [ [ [ [ [ [ [     [ [ [ [ [ [ [ [       ",
"      [ [ [ [ [ [ [ [     [ [ [ [ [ [ [ [    .[ [ [ [ [ [ [ [ ~ ~ [ [ [ [ [ [ [ [ ....[ [ [ [ [ [ [ [     [ [ [ [ [ [ [ [       ",
"      [ [ [ [ [ [ [ [     [ [ [ [ [ [ [ [     [ [ [ [ [ [ [ [     [ [ [ [ [ [ [ [     [ [ [ [ [ [ [ [     [ [ [ [ [ [ [ [       ",
"                                                                                                                                ",
"          .   .                                                         .   .                                                   ",
"            .                                                             .                                                     ",
"                                                                                                                                ",
"                                                                                                                                ",
"                                                                                                                                ",
"                                                                                                                                "
};
