/* XPM */
static const char *EXIT[] = {
/* columns rows colors chars-per-pixel */
"64 64 116 2 ",
"   c #2C1406",
".  c #2E1709",
"X  c #351C0E",
"o  c #3A1E0C",
"O  c #351B12",
"+  c #391A12",
"@  c #3D230D",
"#  c #3C2111",
"$  c #42270E",
"%  c #49270D",
"&  c #43290E",
"*  c #492A0D",
"=  c #502C0E",
"-  c #422612",
";  c #442A11",
":  c #4D2E12",
">  c #44281B",
",  c #512E12",
"<  c #4E3113",
"1  c #48311B",
"2  c #543115",
"3  c #5D3516",
"4  c #5C3914",
"5  c #5A3619",
"6  c #553D1B",
"7  c #5C391B",
"8  c #623619",
"9  c #663D1D",
"0  c #6A3E1D",
"q  c #673E21",
"w  c #6E3E21",
"e  c #67411F",
"r  c #6C421E",
"t  c #73441E",
"y  c #774A1F",
"u  c #7A491E",
"i  c #564022",
"p  c #594522",
"a  c #6D4321",
"s  c #664A25",
"d  c #694D24",
"f  c #724523",
"g  c #7B4624",
"h  c #774921",
"j  c #7A4A22",
"k  c #754B29",
"l  c #6A5B2C",
"z  c #73552E",
"x  c #7E542C",
"c  c #755D2E",
"v  c #735D39",
"b  c #77632D",
"n  c #736831",
"m  c #805126",
"M  c #815D27",
"N  c #82592D",
"B  c #86632E",
"V  c #866531",
"C  c #8C6334",
"Z  c #866832",
"A  c #8E673C",
"S  c #8B7137",
"D  c #8D7139",
"F  c #927D3E",
"G  c #927E50",
"H  c #8C8243",
"J  c #958146",
"K  c #908945",
"L  c #92954F",
"P  c #9E944B",
"I  c #8F8150",
"U  c #A3854E",
"Y  c #A2984F",
"T  c #A59A52",
"R  c #AE925F",
"E  c #A4A153",
"W  c #AAA856",
"Q  c #AAA758",
"!  c #A7AB58",
"~  c #ACB45E",
"^  c #B0B65E",
"/  c #B1B85F",
"(  c #B09F69",
")  c #B6A16C",
"_  c #B1BB60",
"`  c #B4B863",
"'  c #B6BF65",
"]  c #BEA975",
"[  c #C9B97E",
"{  c #A4C263",
"}  c #A4C263",
"|  c #B3C265",
" . c #B7C265",
".. c #B6C365",
"X. c #B7C266",
"o. c #B8C667",
"O. c #B7C668",
"+. c #B9C669",
"@. c #BAC76A",
"#. c #BACA69",
"$. c #BBCB6B",
"%. c #BECC6E",
"&. c #BED06E",
"*. c #C0D06F",
"=. c #C0D070",
"-. c #C0D170",
";. c #C0D270",
":. c #C0D470",
">. c #C0D470",
",. c #CDC38A",
"<. c #CAC08E",
"1. c #D7CC95",
"2. c #D6CD95",
"3. c #D6CD97",
"4. c #E8EEAA",
"5. c #E8EEAA",
/* pixels */
":.:.:.:.:.:.:.:.:.:.:.:.:.:.:.:.:.:.:.:.:.:.:.:.:.:.:.:.:.:.:.:.:.:.:.:.:.:.:.:.:.:.:.:.:.:.:.:.:.:.:.:.:.:.:.:.:.:.:.:.:.:.:.:.",
":.:.:.:.:.:.:.:.:.:.:.:.:.:.:.:.:.:.:.:.:.:.:.:.:.:.:.:.:.:.:.:.:.:.:.:.:.:.:.:.:.:.:.:.:.:.:.:.:.:.:.{ :.{ :.:.:.:.:.:.:.:.:.:.",
":.:.:.:.:.:.:.:.:.:.:.:.:.:.:.:.:.:.{ :.{ :.:.:.:.:.:.:.:.:.:.:.:.:.:.:.:.:.:.:.:.{ :.{ :.:.:.:.:.:.:.:.{ :.:.:.:.:.:.:.:.:.:.:.",
":.:.:.:.:.:.:.:.:.4.:.4.:.:.:.:.:.:.:.{ :.:.:.:.:.:.:.:.:.:.:.:.:.:.:.:.:.:.:.:.:.:.{ :.:.:.:.:.:.:.:.:.:.:.:.:.:.:.:.:.:.:.:.:.",
":.:.:.:.:.:.:.:.:.:.4.:.:.:.:.:.:.:.:.:.:.:.:.:.:.:.:.:.:.:.:.:.:.:.:.:.:.:.:.:.:.:.:.:.:.:.:.:.:.:.:.:.:.:.:.:.:.:.:.:.:.:.:.:.",
":.:.:.:.:.:.:.:.:.:.:.:.:.:.:.:.:.:.:.:.:.:.:.:.:.:.:.:.:.:.:.:.:.:.:.:.:.:.:.:.:.:.:.:.:.:.:.:.:.:.:.:.:.:.:.:.:.:.:.:.:.:.:.:.",
":.:.:.:.:.:.:.:.:.:.:.:.:.:.:.:.:.:.:.:.:.:.:.:.:.:.:.:.:.:.:.:.:.:.:.:.:.:.:.:.:.:.:.:.:.:.:.:.:.:.:.:.:.:.:.:.:.:.:.:.:.:.:.:.",
":.:.:.:.:.:.:.:.:.:.:.:.:.:.:.:.:.:.:.:.:.:.:.:.:.:.:.:.:.:.:.:.:.:.:.:.:.:.:.:.:.:.:.:.:.:.:.:.:.:.:.:.:.:.:.:.:.:.4.:.4.:.:.:.",
":.:.:.:.:.:.:.:.:.:.:.:.:.:.:.:.:.:.:.:.:.Q E E E W F j j j j j j j j j j h W W E E E :.:.:.:.:.:.:.:.:.:.:.:.:.:.:.:.4.:.:.:.:.",
":.:.:.:.:.:.:.:.:.:.:.:.:.:.:.:.:.` S S S h a 5 3 j h h h h h h h h h h h h h j a 5 7 b S D ~ :.:.:.:.:.:.:.:.:.:.:.:.:.:.:.:.:.",
":.:.:.{ :.{ :.:.:.:.:.:.:.:.:.:.:.` S S S h a 5 3 j h h h h h h h h h h h h h j a 5 7 b S D ~ :.:.:.:.:.:.:.:.:.:.:.:.:.:.:.:.:.",
":.:.:.:.{ :.:.:.:.:.:.:.:.:.:.h h R ] h h h h 8 3 h h h h h h h h h h h h h h h a 5 3 j h h h h 5 :.:.:.:.:.:.:.:.:.:.:.:.:.:.:.",
":.:.:.:.:.:.:.:.:.:.:.:.:.Y u h h j h h h h h 8 h h h h h h h h h h h h h h h h a 5 h h h h h h 5 5 ! :.:.{ :.{ :.:.:.:.:.:.:.:.",
":.:.:.:.:.:.:.:.:. .E 9 7 9 h h h h h h h h h h h h h h h h h h h h h h h h h h f 7 h h h h h h h 9 t j u :.{ :.:.:.:.:.:.:.:.:.",
":.:.:.:.:.:.:.:.:. .E 9 7 9 h h h h h h h h h h h h h h h h h h h h h h h h h h f 7 h h h h h h h 9 t j u :.:.:.:.:.:.:.:.:.:.:.",
":.:.:.:.:.:.:.:.T N h h t 9 h h h h h h h h h h h h h h h h h h h h h h h h h h h 9 h h h h h h h h h j [ C ' :.:.:.:.:.:.:.:.:.",
":.:.:.:.:.:.:.+.j h h h h 9 h h h h h h h h h h h h h h h h h h h h h e h h h h h 9 h h h h h h h h h h u U A j :.:.:.:.:.:.:.:.",
":.:.:.:.:.:.:.+.j h h h h 9 h h h h h h h h h h h h h h h h h h h h h e h h h h h 9 h h h h h h h h h h u U A j :.:.:.:.:.:.:.:.",
":.:.:.:.:.*.:.j h h h h h 0 h h h h h h h h h h h h h h h h h h h h h e h h h h h 9 h h h h h h h h h h h j j g j -.-.:.:.:.:.:.",
":.:.:.:./ m Y +.j h h h h f h h h h a q h h h h h h h h h j 7 h h h h e h h h h h h h h h h h h h h h h h h h h h h V  .:.:.:.:.",
":.:.:.-.x h h M j h h h h h h h h h h h h h h h h h h h h j 3 h h h h e h h h h h h h h h h h h h h h h h h h h h h h N :.:.:.:.",
":.:.:.-.x h h M j h h h h h h h h h h h h h h h h h h h h j 3 h h h h e h h h h h h h h h h h h h h h h h h h h h h h N :.:.:.:.",
":.:.:.j h h h h h h h h h h h h h h h h h h h h h h h h h j 3 h h h h j h h h h h h h h h h h h h h h h h h h h h h h h g :.:.:.",
":.:.j h h h h h h h h h h h h h h h h h h h h h h h h h h j 3 h h h h h h t h h h h h h h h h h h h h h h h h h h h h h g :.:.:.",
":.Z h h h h h h h h h h h h h h h h h h h h h h h h h h h 3 3 h h h h h h f h h 9 h h h h h h h k 9 h h h h h h h h h y 2.h F :.",
":.Z h h h h h h h h h h h h h h h h h h h h h h h h h h h 3 3 h h h h h h f h h 9 h h h h h h h k 9 h h h h h h h h h y 2.h F :.",
"E h h h h h h h h h h h h h h h h h h h h h r h h h h h h 3 5 9 h h h h h h h h 9 h y f h h h h 0 r h h h h h h h h h h h g  .$.",
"E h h h h h h h h h h j 9 h h h h h h h h h r h h h h h 0 5 f 7 f h h h h h h h 9 j 9 8 j h h h h h h h h h h r h h h h h h B ~ ",
"E h h h h h h h h h h j 9 h h h h h h h h h r h h h h h 0 5 f 7 f h h h h h h h 9 j 9 8 j h h h h h h h h h h r h h h h h h B ~ ",
"h h h h h h h h h h h 3 5 9 h h h h h h h h 7 7 j h 7 7 5 7 h 5 7 7 7 7 7 7 h 7 5 9 % 3 j h h h h h h h h h h 5 h h h h h h h ~ ",
"j h h h h h h h h h h 7 5 9 h h h h h h h h 5 5 5 5 5 5 5 5 h 5 5 5 5 5 5 5 5 5 5 : 5 5 0 h h h h h h h h h h 7 h h h h h h h y ",
"j h h h h h h h h h 9 5 5 9 h r a 9 5 3 a j 5 5 5 2 5 5 5 5 * 5 5 5 5 5 5 5 5 5 5 2 7 5 5 5 0 a r h h h h h t 5 h h h h h h h y ",
"j h h h h h h h h h 9 5 5 9 h r a 9 5 3 a j 5 5 5 2 5 5 5 5 * 5 5 5 5 5 5 5 5 5 5 2 7 5 5 5 0 a r h h h h h t 5 h h h h h h h y ",
"P h h h h h h h h h 9 5 5 7 9 7 5 5 5 5 7 j 5 5 * * 5 5 5 5 * 5 5 5 5 5 5 5 5 5 5 5 5 * 5 5 5 5 5 9 f h h h 9 5 h h h h h h h y ",
"E h h h h h h h h h 9 5 5 5 5 5 5 5 5 5 5 5 5 5 % 5 5 5 5 5 * 5 5 5 5 5 5 * 7 5 5 5 5 % 5 5 5 5 5 5 5 5 3 j 8 2 5 h h h h h h h ",
"E h h 7 j h h h h r 5 5 5 5 5 5 5 5 < 5 5 5 5 5 5 5 5 5 5 5 * 5 5 5 5 5 5 5 5 5 5 5 5 % 5 5 5 5 5 5 5 5 5 5 5 2 5 h h h h h j ^ ",
"E h h 7 j h h h h r 5 5 5 5 5 5 5 5 < 5 5 5 5 5 5 5 5 5 5 5 * 5 5 5 5 5 5 5 5 5 5 5 5 % 5 5 5 5 5 5 5 5 5 5 5 2 5 h h h h h j ^ ",
"_ N h 7 j h h h 9 5 5 5 5 5 5 5 5 5 < 5 5 5 5 5 5 5 5 5 5 & * 5 5 5 5 5 5 5 5 5 5 5 5 % 5 5 5 5 5 5 2 5 5 5 5 2 3 w h h h h B o.",
":.Z h 7 h h h 7 5 5 5 5 5 2 5 5 5 5 & 5 5 5 5 5 5 5 2 5 5 & & < 5 5 5 5 5 5 5 5 5 5 * % 5 5 5 5 5 5 5 5 5 5 5 2 5 7 j h h h F :.",
":.Z h 7 h h h 7 5 5 5 5 5 2 5 5 5 5 & 5 5 5 5 5 5 5 2 5 5 & & < 5 5 5 5 5 5 5 5 5 5 * % 5 5 5 5 5 5 5 5 5 5 5 2 5 7 j h h h F :.",
":.:.j ! z ) 5 5 5 5 5 5 7 < 5 5 5 5 % 5 5 5 5 5 5 5 * 5 , * & : 5 5 5 5 5 5 5 5 5 5 & * 5 5 5 5 5 5 5 5 5 5 5 2 5 5 7 f h g :.:.",
":.:.:.%.H d 5 5 5 5 5 5 7 < 5 5 5 2 % 5 5 5 5 5 5 % * , : & & ; 5 5 5 5 5 5 5 5 5 : & ; : 5 5 5 5 5 5 5 5 5 5 2 5 5 5 7 h { :.:.",
":.:.:.{ :.s 5 5 5 5 5 5 7 < 5 5 5 2 : 5 5 5 5 5 % & & * * & ; & * & & & 5 5 5 7 & & ; X : 5 5 5 5 5 5 5 5 5 5 2 5 5 4 5 4 :.:.:.",
":.:.:.:.{ d 5 5 5 5 5 5 7 < 5 5 5 2 : 5 5 5 5 5 % & & * * & ; & * & & & 5 5 5 7 & & ; X : 5 5 5 5 5 5 5 5 5 5 2 5 5 4 5 4 :.:.:.",
":.:.:.:.! 9 5 5 5 5 5 5 7 < 5 5 5 2 & , 2 & & & & & & & & & X & & & & & * & & & & & ; X & 2 5 5 5 5 5 5 5 5 5 2 5 5 ( J :.:.:.:.",
":.:.:.:.:._ 5 5 5 5 5 5 * < 5 = * : & & & & & & & & & & & & X & & & & & o & & & & & o X & & * * = 5 ; : 5 5 * : 5 5 c $.:.:.:.:.",
":.:.:.:.:.:.:.5 5 5 5 5 & * & * & & @ & & & & & & & & & & & X & & & & & o & & & & & X X & & & & * * & * 5 2 * & % 5 :.:.:.:.:.:.",
":.:.:.:.:.:.:.5 5 5 5 5 & * & * & & @ & & & & & & & & & & & X & & & & & o & & & & & X X & & & & * * & * 5 2 * & % 5 :.:.:.:.:.:.",
":.:.:.:.:.:.:.:.K 7 5 ; & & & & & & # & & & & & & & & & & X X & & & & & o & & & & ; X X & & & & & & & & * 2 & : < :.:.:.:.:.:.:.",
":.:.:.:.:.:.:.:.:.~ 6 & ; v & & & & - & & & & & & & $ @ o X X o & & & o X & & & $ X X X & & $ ; G & & & ; * n ~ :.:.:.:.:.:.:.:.",
":.:.:.:.:.:.:.:.:.~ 6 & ; v & & & & - & & & & & & & $ @ o X X o & & & o X & & & $ X X X & & $ ; G & & & ; * n ~ :.:.:.:.:.:.:.:.",
":.:.:.:.:.:.:.:.:.:.O.& & I i & ; & & & ; o @ & & - X X X X . X o o + X X X ; & - X . X & & o - 2.l | & & | &.:.:.:.:.:.:.:.:.:.",
":.:.:.:.:.:.:.:.:.:.:.:.4.:.p 2.,.; ; o O X X X X X X X X X . X X X X X X X O X X X   X - O O + - :.:.:.:.:.:.&.:.:.:.:.:.:.:.:.",
":.:.:.:.:.:.:.:.:.:.:.:.:.:.:.6 6 1 > O O O X X X X X . X X X X X X X X X X <.1 X X X O O O 1 :.:.:.:.:.:.:.:.:.:.:.:.:.:.:.:.:.",
":.:.:.:.:.:.:.:.:.:.:.:.:.:.:.6 6 1 > O O O X X X X X . X X X X X X X X X X <.1 X X X O O O 1 :.:.:.:.:.:.:.:.4.:.4.:.:.:.:.:.:.",
":.:.:.:.:.:.:.:.:.:.:.:.:.:.:.:.:.:.:.:.:.:.X O O X X X X X X X X X X X X X :.:.L O O :.:.:.:.:.:.:.:.:.:.:.:.:.4.:.:.:.:.:.:.:.",
":.:.:.:.:.:.:.:.:.:.:.:.:.:.:.:.:.:.:.:.:.:.:.:.:.:.:.:.:.:.:.:.:.:.:.:.:.:.:.:.:.:.:.:.:.:.:.:.:.:.:.:.:.:.:.:.:.:.:.:.:.:.:.:.",
":.:.:.:.:.:.:.:.:.:.:.:.:.:.:.:.:.:.:.:.:.:.:.:.:.:.:.:.:.:.:.:.:.:.:.:.:.:.:.:.:.:.:.:.:.:.:.:.:.:.:.:.:.:.:.:.:.:.:.:.:.:.:.:.",
":.:.:.:.:.{ :.{ :.:.:.:.:.:.:.:.:.:.:.:.:.:.:.:.:.:.:.:.:.:.:.:.:.:.:.:.{ :.{ :.:.:.:.:.:.:.:.:.:.:.:.:.:.:.:.:.:.:.:.:.:.:.:.:.",
":.:.:.:.:.:.{ :.:.:.:.:.:.:.:.:.:.:.:.:.:.:.:.:.:.:.:.:.:.:.:.:.:.:.:.:.:.{ :.:.:.:.:.:.:.:.:.:.:.:.:.:.:.:.:.:.:.:.:.:.:.:.:.:.",
":.:.:.:.:.:.:.:.:.:.:.:.:.:.:.:.:.:.:.:.:.:.:.:.:.:.:.:.:.:.:.:.:.:.:.:.:.:.:.:.:.:.:.:.:.:.:.:.:.:.:.:.:.:.:.:.:.:.:.:.:.:.:.:.",
":.:.:.:.:.:.:.:.:.:.:.:.:.:.:.:.:.:.:.:.:.:.:.:.:.:.:.:.:.:.:.:.:.:.:.:.:.:.:.:.:.:.:.:.:.:.:.:.:.:.:.:.:.:.:.:.:.:.:.:.:.:.:.:.",
":.:.:.:.:.:.:.:.:.:.:.:.:.:.:.:.:.:.:.:.:.:.:.:.:.:.:.:.:.:.:.:.:.:.:.:.:.:.:.:.:.:.:.:.:.:.:.:.:.:.:.:.:.:.:.:.:.:.:.:.:.:.:.:.",
":.:.:.:.:.:.:.:.:.:.:.:.:.:.:.:.:.:.:.:.:.:.:.:.:.:.:.:.:.:.:.:.:.:.:.:.:.:.:.:.:.:.:.:.:.:.:.:.:.:.:.:.:.:.:.:.:.:.:.:.:.:.:.:."
};
