/* XPM */
static const char *BACK_LEFT[] = {
/* columns rows colors chars-per-pixel */
"64 64 7 1 ",
"  c #C0D470",
". c #5C4E92",
"X c #F3F2C0",
"o c #E8EEAA",
"O c #A4C263",
"+ c #DDD5DE",
"@ c #766DAA",
/* pixels */
"         ..............                  ..............         ",
"         ..............                  ..............         ",
"         ..............                  ..............         ",
"         ..............                  ..............         ",
"     ....XXXXXXXXXXXXXX....          ....XXXXXXXXXXXXXX....     ",
"     ....XXXXXXXXXXXXXX....          ....XXXXXXXXXXXXXX....     ",
"     ....XXXXXXXXXXXXXX....          ....XXXXXXXXXXXXXX....     ",
"     ....XXXXXXXXXXXXXX....          ....XXXXXXXXXXXXXX.... o   ",
"     ....XXXXXXXXXXXXXX..................XXXXXXXXXXXXXX....o    ",
"     ....XXXXXXXXXXXXXX..................XXXXXXXXXXXXXX....     ",
"   O ....XXXXXXXXXXXXXX..................XXXXXXXXXXXXXX....     ",
"    O....XXXXXXXXXXXXXX..................XXXXXXXXXXXXXX....     ",
"     ....XXXXXXXXXXXXXX++++++++++++++++++XXXXXXXXXXXXXX....     ",
"     ....XXXXXXXXXXXXXX++++++++++++++++++XXXXXXXXXXXXXX....     ",
"     ....XXXXXXXXXXXXXX++++++++++++++++++XXXXXXXXXXXXXX....     ",
"     ....XXXXXXXXXXXXXX++++++++++++++++++XXXXXXXXXXXXXX....     ",
"     ....XXXXXXXXXXXXXXXXXXXXXXXXXXXXXXXXXXXXXXXXXXXXXX....     ",
"     ....XXXXXXXXXXXXXXXXXXXXXXXXXXXXXXXXXXXXXXXXXXXXXX....     ",
"     ....XXXXXXXXXXXXXXXXXXXXXXXXXXXXXXXXXXXXXXXXXXXXXX....     ",
"     ....XXXXXXXXXXXXXXXXXXXXXXXXXXXXXXXXXXXXXXXXXXXXXX....     ",
"     ....XXXXXXXXXXXXXXXXXXXXXXXXXXXXXXXXXXXXXXXXXXXXXX....     ",
"     ....XXXXXXXXXXXXXXXXXXXXXXXXXXXXXXXXXXXXXXXXXXXXXX....     ",
"     ....XXXXXXXXXXXXXXXXXXXXXXXXXXXXXXXXXXXXXXXXXXXXXX....     ",
"     ....XXXXXXXXXXXXXXXXXXXXXXXXXXXXXXXXXXXXXXXXXXXXXX....     ",
".........XXXXXXXXXXXXXXXXXXXXXXXXXXXXXXXXXXXXXXXXXXXXXX.........",
".........XXXXXXXXXXXXXXXXXXXXXXXXXXXXXXXXXXXXXXXXXXXXXX.........",
".........XXXXXXXXXXXXXXXXXXXXXXXXXXXXXXXXXXXXXXXXXXXXXX.........",
".........XXXXXXXXXXXXXXXXXXXXXXXXXXXXXXXXXXXXXXXXXXXXXX.........",
"     ....XXXXXXXXXXXXXXXXXXXXXXXXXXXXXXXXXXXXXXXXXXXXXX....     ",
"     ....XXXXXXXXXXXXXXXXXXXXXXXXXXXXXXXXXXXXXXXXXXXXXX....     ",
"     ....XXXXXXXXXXXXXXXXXXXXXXXXXXXXXXXXXXXXXXXXXXXXXX....     ",
"     ....XXXXXXXXXXXXXXXXXXXXXXXXXXXXXXXXXXXXXXXXXXXXXX....     ",
".........XXXXXXXXXXXXXXXXXXXXXXXXXXXXXXXXXXXXXXXXXXXXXX.........",
".........XXXXXXXXXXXXXXXXXXXXXXXXXXXXXXXXXXXXXXXXXXXXXX.........",
".........XXXXXXXXXXXXXXXXXXXXXXXXXXXXXXXXXXXXXXXXXXXXXX.........",
".........XXXXXXXXXXXXXXXXXXXXXXXXXXXXXXXXXXXXXXXXXXXXXX.........",
"     ....XXXXXXXXXXXXXXXXXXXXXXXXXXXXXXXXXXXXXXXXXXXXXX....     ",
"     ....XXXXXXXXXXXXXXXXXXXXXXXXXXXXXXXXXXXXXXXXXXXXXX....     ",
"     ....XXXXXXXXXXXXXXXXXXXXXXXXXXXXXXXXXXXXXXXXXXXXXX....     ",
"     ....XXXXXXXXXXXXXXXXXXXXXXXXXXXXXXXXXXXXXXXXXXXXXX....     ",
"         .........@@@@@@@@@@@@@@@@@@@@@@@@@@@@.............     ",
"         .........@@@@@@@@@@@@@@@@@@@@@@@@@@@@.............O O  ",
"   O O   .........@@@@@@@@@@@@@@@@@@@@@@@@@@@@............. O   ",
"    O    .........@@@@@@@@@@@@@@@@@@@@@@@@@@@@.............     ",
"         .........@@@@@@@@@..........@@@@@@@@@XXXX+++++....     ",
"         .........@@@@@@@@@..........@@@@@@@@@XXXX+++++....     ",
"         .........@@@@@@@@@..........@@@@@@@@@XXXX+++++....     ",
"         .........@@@@@@@@@..........@@@@@@@@@XXXX+++++....     ",
"     ....+++++XXXXXXXXX....XXXXXXXXXX....XXXXXXXXX.....         ",
"     ....+++++XXXXXXXXX....XXXXXXXXXX....XXXXXXXXX.....         ",
"     ....+++++XXXXXXXXX....XXXXXXXXXX....XXXXXXXXX.....         ",
"     ....+++++XXXXXXXXX....XXXXXXXXXX....XXXXXXXXX.....         ",
"     ....+++++XXXX.....XXXXXXXXXXXXXXXXXXXXXXX....              ",
"     ....+++++XXXX.....XXXXXXXXXXXXXXXXXXXXXXX....              ",
"     ....+++++XXXX.....XXXXXXXXXXXXXXXXXXXXXXX....     o o      ",
"     ....+++++XXXX.....XXXXXXXXXXXXXXXXXXXXXXX....      o       ",
"     ................................+++++++++....              ",
"     ................................+++++++++....              ",
"     ................................+++++++++....              ",
"     ................................+++++++++....              ",
"                                     .........                  ",
"                                     .........                  ",
"                                     .........                  ",
"                                     .........                  "
};
