/* XPM */
static const char *Enemy[] = {
/* columns rows colors chars-per-pixel */
"64 64 13 1 ",
"  c #C0D470",
". c #90625D",
"X c #A4C263",
"o c #E8EEAA",
"O c #C58086",
"+ c #F3F2C0",
"@ c #754C60",
"# c #D4C169",
"$ c #E8CFA6",
"% c #C49A6C",
"& c #B3C373",
"* c #D6DAA6",
"= c #9AB367",
/* pixels */
"                             ..................                 ",
"                             ..................    X X          ",
"                  X X        ..................     X           ",
"         o o       X         ..................                 ",
"          o                  ..................                 ",
"                       ......OOOOOOOOOOOOOOOOOO.....            ",
"                       ......OOOOOOOOOOOOOOOOOO.....            ",
"                       ......OOOOOOOOOOOOOOOOOO.....      o o   ",
"                       ......OOOOOOOOOOOOOOOOOO.....       o    ",
"                       ......OOOOOOOOOOOOOOOOOO.....            ",
"   X X                 ......OOOOOOOOOOOOOOOOOO.....            ",
"    X            ......+++++++++++++++++++++++++++++......      ",
"                 ......+++++++++++++++++++++++++++++......      ",
"                 ......+++++++++++++++++++++++++++++......      ",
"                 ......+++++++++++++++++++++++++++++......      ",
"                 ......+++++++++++++++++++++++++++++......      ",
"            .....++++++@@@@@@@@@@@@++++++++++++@@@@@@@@@@@......",
"            .....++++++@@@@@@@@@@@@++++++++++++@@@@@@@@@@@......",
"            .....++++++@@@@@@@@@@@@++++++++++++@@@@@@@@@@@......",
"           o.....++++++@@@@@@@@@@@@++++++++++++@@@@@@@@@@@......",
"            .....++++++@@@@@@@@@@@@++++++++++++@@@@@@@@@@@......",
"            .....++++++++++++++++++++++++###########++++++......",
"            .....++++++++++++++++++++++++###########++++++......",
"            .....++++++++++++++++++++++++###########++++++......",
"            .....++++++++++++++++++++++++###########++++++......",
"            .....++++++++++++++++++++++++###########++++++......",
"    o o     .....++++++++++++++++++++++++###########++++++......",
"     o......++++++++++++++++++++++++++++++++++++++++++++++......",
"      ......++++++++++++++++++++++++++++++++++++++++++++++......",
"      ......++++++++++++++++++++++++++++++++++++++++++++++......",
"      ......++++++++++++++++++++++++++++++++++++++++++++++......",
"      ......++++++++++++++++++++++++++++++++++++++++++++++......",
"......++++++++++++++++++++++++++++++++++++++++++++++++++++......",
"......++++++++++++++++++++++++++++++++++++++++++++++++++++......",
"......++++++++++++++++++++++++++++++++++++++++++++++++++++......",
"......++++++++++++++++++++++++++++++++++++++++++++++++++++......",
"......++++++++++++++++++++++++++++++++++++++++++++++++++++......",
"......$$$$$$+++++++++++++++++%%%%%%+++++++++++++++++$$$$$$......",
"......$$$$$$+++++++++++++++++%%%%%%+++++++++++++++++$$$$$$......",
"......$$$$$$+++++++++++++++++%%%%%%+++++++++++++++++$$$$$$......",
"......$$$$$$+++++++++++++++++%%%%%%+++++++++++++++++$$$$$$......",
"......$$$$$$+++++++++++++++++%%%%%%+++++++++++++++++$$$$$$......",
"......$$$$$$+++++++++++++++++%%%%%%+++++++++++++++++$$$$$$......",
"    X ......%%%%%%%%%%%%%%%%%$$$$$$$$$$$$$$$$$$$$$$$......      ",
"      ......%%%%%%%%%%%%%%%%%$$$$$$$$$$$$$$$$$$$$$$$......      ",
"      ......%%%%%%%%%%%%%%%%%$$$$$$$$$$$$$$$$$$$$$$$......      ",
"      ......%%%%%%%%%%%%%%%%%$$$$$$$$$$$$$$$$$$$$$$$......      ",
"      ......%%%%%%%%%%%%%%%%%$$$$$$$$$$$$$$$$$$$$$$$......      ",
"      &&&&&&.....############......############.....&&&&&&      ",
"      &&&&&&.....############......############.....&&&&&&      ",
"      &&&&&&.....############......############.....&&&&&&      ",
"      &&&&&*.....############......############.....&&&&&&      ",
"      &&&&&&.....############......############.....&&&&&&      ",
"&&&&&&&&&&&&&&&&&............&&&&&&............&&&&&&&&&&&&&&&&&",
"&&&&&&&&&&&&&&&&&............&&&&&&............&&&&&&&&*&*&&&&&&",
"&&&&&&&&&&&&&&&&&............&&&&&&............&&&&&&&&&*&&&&&&&",
"&&&&&&&&&&&&&&&&&............&&&&&&............&&&&&&&&&&&&&&&&&",
"&&&&&&&&&&&&&&&&&............&&&&&&............&&&&&&&&&&&&&&&&&",
"&&&&&=&=&&&&&&&&&............&&&&&&............&&&&&&&&&&&&&&&&&",
"      =&&&&&&&&&&&&&&&&&&&&&&&&&&&&&&=&&&&&&&&&&&&&&&&&&&&      ",
"      &&&&&&&&&&&&&&&&&&&&&&&&&&&&&&&&&&&&&&&&&&&&&&&&&&&&      ",
"      &&&&&&&&&&&&&&&&&&&&&&&&&&&&&&&&&&&&&&&&&&&&&&&&&&&&      ",
"      &&&&&&&&&&&&&&&&&&&&&&&&&&&&&&&&&&&&&&&&&&&&&&&&&&&&      ",
"      &&&&&&&&&&&&&&&&&&&&&&&&&&&&&&&&&&&&&&&&&&&&&&&&&&&&      "
};
