/* XPM */
static const char *FRONT_RIGHT[] = {
/* columns rows colors chars-per-pixel */
"64 64 10 1 ",
"  c #C0D470",
". c #5C4E92",
"X c #F3F2C0",
"o c #E8EEAA",
"O c #E8B5AC",
"+ c #A4C263",
"@ c #DDD5DE",
"# c #F3D8C5",
"$ c #766DAA",
"% c #EAE178",
/* pixels */
"         ..............                  ..............         ",
"         ..............                  ..............         ",
"         ..............                  ..............         ",
"         ..............                  ..............         ",
"     ....XXXXXXXXXXXXXX....          ....XXXXXXXXXXXXXX....     ",
"     ....XXXXXXXXXXXXXX....          ....XXXXXXXXXXXXXX....     ",
"     ....XXXXXXXXXXXXXX....          ....XXXXXXXXXXXXXX....     ",
"     ....XXXXXXXXXXXXXX....          ....XXXXXXXXXXXXXX.... o   ",
"     ....OOOOOOOOOXXXXX..................XXXXXOOOOOOOOO....o    ",
"     ....OOOOOOOOOXXXXX..................XXXXXOOOOOOOOO....     ",
"   + ....OOOOOOOOOXXXXX..................XXXXXOOOOOOOOO....     ",
"    +....OOOOOOOOOXXXXX..................XXXXXOOOOOOOOO....     ",
"     ....OOOOOOOOOXXXXX@@@@@@@@@@@@@@@@@@XXXXXOOOOOOOOO....     ",
"     ....OOOOOOOOOXXXXX@@@@@@@@@@@@@@@@@@XXXXXOOOOOOOOO....     ",
"     ....OOOOOOOOOXXXXX@@@@@@@@@@@@@@@@@@XXXXXOOOOOOOOO....     ",
"     ....OOOOOOOOOXXXXX@@@@@@@@@@@@@@@@@@XXXXXOOOOOOOOO....     ",
"     ....XXXXXXXXXXXXXX@@@@@@@@@@@@@@@@@@XXXXXXXXXXXXXX....     ",
"     ....XXXXXXXXXXXXXX@@@@@@@@@@@@@@@@@@XXXXXXXXXXXXXX....     ",
"     ....XXXXXXXXXXXXXX@@@@@@@@@@@@@@@@@@XXXXXXXXXXXXXX....     ",
"     ....XXXXXXXXXXXXXX@@@@@@@@@@@@@@@@@@XXXXXXXXXXXXXX....     ",
"     ....XXXXXXXXXXXXXX@@@@@@@@@@@@@@@@@@XXXXXXXXXXXXXX....     ",
"     ....XXXXXXXXXXXXXX@@@@@@@@@@@@@@@@@@XXXXXXXXXXXXXX....     ",
"     ....XXXXXXXXXXXXXX@@@@@@@@@@@@@@@@@@XXXXXXXXXXXXXX....     ",
"     ....XXXXXXXXXXXXXX@@@@@@@@@@@@@@@@@@XXXXXXXXXXXXXX....     ",
".........XXXXXXXXXXXXXXXXXXXXXXXXXXXXXXXXXXXXXXXXXXXXXX.........",
".........XXXXXXXXXXXXXXXXXXXXXXXXXXXXXXXXXXXXXXXXXXXXXX.........",
".........XXXXXXXXXXXXXXXXXXXXXXXXXXXXXXXXXXXXXXXXXXXXXX.........",
".........XXXXXXXXXXXXXXXXXXXXXXXXXXXXXXXXXXXXXXXXXXXXXX.........",
"     ....XXXXX....XXXXXXXXXXXXXXXXXXXXXXXXXXXX....XXXXX....     ",
"     ....XXXXX....XXXXXXXXXXXXXXXXXXXXXXXXXXXX....XXXXX....     ",
"     ....XXXXX....XXXXXXXXXXXXXXXXXXXXXXXXXXXX....XXXXX....     ",
"     ....XXXXX....XXXXXXXXXXXXXXXXXXXXXXXXXXXX....XXXXX....     ",
".........XXXXXXXXXXXXXXXXXXXXXXXXXXXXXXXXXXXXXXXXXXXXXX.........",
".........XXXXXXXXXXXXXXXXXXXXXXXXXXXXXXXXXXXXXXXXXXXXXX.........",
".........XXXXXXXXXXXXXXXXXXXXXXXXXXXXXXXXXXXXXXXXXXXXXX.........",
".........XXXXXXXXXXXXXXXXXXXXXXXXXXXXXXXXXXXXXXXXXXXXXX.........",
"     ....#########XXXXXXXXXXXXXXXXXXXXXXXXXXXX#########....     ",
"     ....#########XXXXXXXXXXXXXXXXXXXXXXXXXXXX#########....     ",
"     ....#########XXXXXXXXXXXXXXXXXXXXXXXXXXXX#########....     ",
"     ....#########XXXXXXXXXXXXXXXXXXXXXXXXXXXX#########....     ",
"         .........$$$$$$$$$$$$$$$$$$$$$$$$$$$$.............     ",
"         .........$$$$$$$$$$$$$$$$$$$$$$$$$$$$.............+ +  ",
"   + +   .........$$$$$$$$$$$$$$$$$$$$$$$$$$$$............. +   ",
"    +    .........$$$$$$$$$$$$$$$$$$$$$$$$$$$$.............     ",
"         .........$$$$$$$$$%%%%%XXXXX$$$$$$$$$XXXX@@@@@....     ",
"         .........$$$$$$$$$%%%%%XXXXX$$$$$$$$$XXXX@@@@@....     ",
"         .........$$$$$$$$$%%%%%XXXXX$$$$$$$$$XXXX@@@@@....     ",
"         .........$$$$$$$$$%%%%%XXXXX$$$$$$$$$XXXX@@@@@....     ",
"     ....@@@@@XXXXXXXXXXXXX%%%%%%%%%%XXXXXXXXXXXXX.....         ",
"     ....@@@@@XXXXXXXXXXXXX%%%%%%%%%%XXXXXXXXXXXXX.....         ",
"     ....@@@@@XXXXXXXXXXXXX%%%%%%%%%%XXXXXXXXXXXXX.....         ",
"     ....@@@@@XXXXXXXXXXXXX%%%%%%%%%%XXXXXXXXXXXXX.....         ",
"     ....@@@@@XXXX.....XXXXXXXXXXXXXXXXXXXXXXX....              ",
"     ....@@@@@XXXX.....XXXXXXXXXXXXXXXXXXXXXXX....              ",
"     ....@@@@@XXXX.....XXXXXXXXXXXXXXXXXXXXXXX....     o o      ",
"     ....@@@@@XXXX.....XXXXXXXXXXXXXXXXXXXXXXX....      o       ",
"     ................................@@@@@@@@@....              ",
"     ................................@@@@@@@@@....              ",
"     ................................@@@@@@@@@....              ",
"     ................................@@@@@@@@@....              ",
"                                     .........                  ",
"                                     .........                  ",
"                                     .........                  ",
"                                     .........                  "
};
