/* XPM */
static const char *LEFT_LEFT[] = {
/* columns rows colors chars-per-pixel */
"64 64 10 1 ",
"  c #C0D470",
". c #5C4E92",
"X c #A4C263",
"o c #E8EEAA",
"O c #F3F2C0",
"+ c #E8B5AC",
"@ c #F3D8C5",
"# c #766DAA",
"$ c #EAE178",
"% c #DDD5DE",
/* pixels */
"                            ............                        ",
"                            ............           X X          ",
"                  X X       ............ X X        X           ",
"         o o       X        ............  X                     ",
"          o             ....OOOOOOOOOOOO....                    ",
"                        ....OOOOOOOOOOOO....                    ",
"                        ....OOOOOOOOOOOO....                    ",
"                        ....OOOOOOOOOOOO....              o o   ",
"                    ........OOOO++++++++OOOO....           o    ",
"                    ........OOOO++++++++OOOO....                ",
"   X X              ........OOOO++++++++OOOO....                ",
"    X               ........OOOO++++++++OOOO....                ",
"                ....OOOOOOOOOOOO++++++++OOOO....     X X        ",
"                ....OOOOOOOOOOOO++++++++OOOO....      X         ",
"                ....OOOOOOOOOOOO++++++++OOOO....                ",
"                ....OOOOOOOOOOOO++++++++OOOO....                ",
"                ....OOOOOOOOOOOOOOOOOOOOOOOO....                ",
"                ....OOOOOOOOOOOOOOOOOOOOOOOO....                ",
"                ....OOOOOOOOOOOOOOOOOOOOOOOO....                ",
"           o o  ....OOOOOOOOOOOOOOOOOOOOOOOO....                ",
"            o   ....OOOOOOOOOOOOOOOOOOOOOOOO....                ",
"                ....OOOOOOOOOOOOOOOOOOOOOOOO....       o o      ",
"                ....OOOOOOOOOOOOOOOOOOOOOOOO....        o       ",
"                ....OOOOOOOOOOOOOOOOOOOOOOOO....                ",
"            ........OOOOOOOOOOOOOOOOOOOOOOOO........            ",
"            ........OOOOOOOOOOOOOOOOOOOOOOOO........            ",
"    o o     ........OOOOOOOOOOOOOOOOOOOOOOOO........            ",
"     o      ........OOOOOOOOOOOOOOOOOOOOOOOO........            ",
"            ....OOOOOOOO....OOOOOOOOOOOOOOOO....                ",
"            ....OOOOOOOO....OOOOOOOOOOOOOOOO....                ",
"            ....OOOOOOOO....OOOOOOOOOOOOOOOO....                ",
"            ....OOOOOOOO....OOOOOOOOOOOOOOOO....                ",
"            ....OOOOOOOOOOOOOOOOOOOOOOOOOOOO........            ",
"            ....OOOOOOOOOOOOOOOOOOOOOOOOOOOO........            ",
"            ....OOOOOOOOOOOOOOOOOOOOOOOOOOOO........ X          ",
"         X X....OOOOOOOOOOOOOOOOOOOOOOOOOOOO........X           ",
"          X ....OOOOOOOOOOOO@@@@@@@@OOOOOOOO....                ",
"            ....OOOOOOOOOOOO@@@@@@@@OOOOOOOO....                ",
"            ....OOOOOOOOOOOO@@@@@@@@OOOOOOOO....                ",
"            ....OOOOOOOOOOOO@@@@@@@@OOOOOOOO....                ",
"                ....####################....                    ",
"                ....####################....               X X  ",
"   X X          ....####################....                X   ",
"    X           ....####################....                    ",
"                $$$$####....%%%%OOOOOOOO....        o o         ",
"                $$$$####....%%%%OOOOOOOO....         o          ",
"                $$$$####....%%%%OOOOOOOO....                    ",
"                $$$$####....%%%%OOOOOOOO....                    ",
"                $$$$........%%%%OOOOOOOO....                    ",
"                $$$$........%%%%OOOOOOOO....                    ",
"                $$$$........%%%%OOOOOOOO....                    ",
"           o o  $$$$........%%%%OOOOOOOO....                    ",
"            o   ........OOOO....OOOOOOOOOOOO....                ",
"                ........OOOO....OOOOOOOOOOOO....                ",
"                ........OOOO....OOOOOOOOOOOO....       o o      ",
"                ........OOOO....OOOOOOOOOOOO....        o       ",
"                ....................%%%%%%%%....                ",
"                ....................%%%%%%%%....                ",
"     X X        ....................%%%%%%%%....                ",
"      X         ....................%%%%%%%%....                ",
"                    ........        ........                    ",
"                    ........        ........                    ",
"                    ........        ........                    ",
"                    ........        ........                    "
};
